<?xml version="1.0" standalone="no"?>
<!DOCTYPE svg PUBLIC "-//W3C//DTD SVG 20010904//EN"
 "http://www.w3.org/TR/2001/REC-SVG-20010904/DTD/svg10.dtd">
<svg version="1.0" xmlns="http://www.w3.org/2000/svg"
 width="1024.000000pt" height="1024.000000pt" viewBox="0 0 1024.000000 1024.000000"
 preserveAspectRatio="xMidYMid meet">
<metadata>
Created by potrace 1.14, written by Peter Selinger 2001-2017
</metadata>
<g transform="translate(0.000000,1024.000000) scale(0.100000,-0.100000)"
fill="#000000" stroke="none">
<path d="M2211 6993 c-65 -242 -191 -729 -191 -736 0 -4 6 -10 14 -13 10 -4
83 63 208 189 217 220 279 266 501 372 264 126 411 164 680 172 l177 6 0
-2021 c0 -1388 -3 -2045 -11 -2098 -15 -108 -43 -178 -95 -232 -83 -86 -99
-82 351 -82 453 0 434 -5 346 87 -37 39 -56 69 -73 120 l-23 68 -3 2078 -2
2077 132 0 c230 0 408 -37 626 -131 137 -58 238 -112 342 -182 71 -48 268
-236 392 -374 47 -52 58 -60 72 -50 14 11 4 54 -86 400 l-102 387 -1623 0
-1622 0 -10 -37z"/>
<path d="M6273 6049 c-85 -42 -135 -124 -136 -224 -1 -141 103 -248 243 -248
213 0 324 248 185 410 -69 81 -199 108 -292 62z"/>
<path d="M6308 5072 c-257 -60 -277 -71 -198 -104 80 -33 75 66 78 -1343 3
-1309 -2 -1537 -39 -1753 -22 -133 -67 -273 -111 -352 -62 -108 -190 -218
-366 -313 -65 -35 -76 -46 -74 -64 2 -13 7 -23 10 -23 20 0 319 154 397 205
394 254 556 536 595 1035 5 72 10 690 10 1448 l0 1322 -32 -1 c-18 0 -140 -26
-270 -57z"/>
<path d="M7535 3759 c-113 -22 -262 -113 -487 -300 -177 -147 -266 -239 -273
-281 -17 -95 93 -182 177 -137 11 6 97 78 191 161 95 83 204 173 242 200 70
50 156 98 174 98 12 0 -42 -93 -127 -218 -138 -203 -163 -315 -90 -407 27 -34
92 -65 138 -64 19 0 78 15 130 33 201 71 526 187 552 197 57 23 86 118 55 179
-17 34 -74 70 -111 70 -17 -1 -129 -38 -248 -84 -120 -46 -218 -81 -218 -78 0
3 36 60 80 127 44 67 91 146 105 176 59 128 11 277 -103 312 -66 21 -129 27
-187 16z"/>
</g>
</svg>
