<?xml version="1.0" standalone="no"?>
<!DOCTYPE svg PUBLIC "-//W3C//DTD SVG 20010904//EN"
 "http://www.w3.org/TR/2001/REC-SVG-20010904/DTD/svg10.dtd">
<svg version="1.0" xmlns="http://www.w3.org/2000/svg"
 width="1024.000000pt" height="1024.000000pt" viewBox="0 0 1024.000000 1024.000000"
 preserveAspectRatio="xMidYMid meet">
<metadata>
Created by potrace 1.14, written by Peter Selinger 2001-2017
</metadata>
<g transform="translate(0.000000,1024.000000) scale(0.100000,-0.100000)"
fill="#000000" stroke="none">
<path d="M4765 9924 c-386 -30 -872 -131 -1215 -252 -613 -218 -1168 -545
-1640 -966 -56 -51 -321 -316 -375 -376 -125 -139 -269 -323 -387 -495 -69
-100 -208 -321 -208 -330 0 -2 -14 -28 -31 -57 -146 -246 -329 -688 -414 -994
-15 -54 -33 -119 -40 -144 -19 -61 -80 -371 -99 -500 -62 -412 -62 -1007 0
-1395 26 -161 63 -354 85 -440 12 -44 25 -98 31 -120 41 -171 166 -520 260
-728 69 -152 216 -427 286 -537 124 -193 133 -206 256 -373 190 -257 531 -614
782 -819 716 -585 1541 -944 2444 -1062 410 -54 846 -54 1265 0 394 51 893
185 1220 329 325 143 586 284 814 439 57 39 113 77 125 85 234 156 633 520
851 776 87 101 227 280 265 336 14 20 52 77 86 125 62 91 164 252 164 260 0 2
11 21 24 42 77 122 228 438 309 647 164 425 262 850 307 1341 24 259 8 809
-31 1079 -62 431 -204 924 -366 1274 -96 208 -117 250 -238 466 -294 529 -845
1134 -1366 1501 -255 179 -484 314 -719 425 -47 21 -93 44 -103 49 -28 17
-234 99 -352 142 -380 137 -785 226 -1195 263 -147 13 -662 19 -795 9z m800
-143 c274 -27 369 -42 650 -105 39 -8 124 -31 190 -50 946 -271 1770 -818
2387 -1587 148 -184 270 -366 431 -642 26 -43 149 -288 185 -367 56 -122 155
-384 193 -510 10 -36 28 -94 38 -130 72 -241 138 -608 162 -905 16 -186 16
-531 0 -730 -23 -294 -82 -641 -147 -860 -14 -50 -32 -113 -39 -140 -8 -28
-29 -96 -49 -152 -169 -492 -412 -946 -725 -1353 -36 -47 -68 -87 -71 -90 -3
-3 -45 -52 -94 -110 -182 -215 -506 -517 -746 -696 -716 -533 -1552 -846
-2445 -915 -386 -29 -918 -1 -1225 65 -36 8 -103 22 -150 32 -338 69 -731 208
-1070 378 -91 46 -179 92 -197 102 -17 11 -62 37 -100 58 -484 275 -993 731
-1366 1223 -376 497 -684 1151 -814 1728 -91 405 -123 695 -123 1095 1 394 33
676 124 1085 108 486 359 1059 659 1510 107 159 173 247 341 450 98 119 382
403 516 516 71 61 156 129 189 153 14 11 51 38 81 61 30 23 109 78 175 122
527 351 1107 587 1740 707 389 74 895 96 1300 57z"/>
<path d="M4770 9490 c-41 -4 -124 -13 -185 -19 -60 -7 -126 -16 -145 -21 -19
-4 -57 -11 -85 -15 -119 -16 -391 -83 -565 -140 -660 -213 -1218 -548 -1716
-1028 -641 -618 -1083 -1427 -1252 -2292 -42 -211 -46 -240 -73 -520 -15 -161
-6 -678 15 -845 30 -238 48 -332 108 -578 79 -323 241 -738 396 -1014 11 -18
34 -60 52 -93 46 -82 212 -335 268 -409 161 -213 225 -288 392 -460 522 -537
1185 -942 1875 -1144 464 -137 781 -182 1275 -182 475 0 803 47 1265 181 363
106 777 298 1110 514 1008 655 1701 1677 1929 2845 56 286 76 512 76 845 0
333 -20 559 -76 845 -41 206 -143 567 -202 710 -5 14 -20 50 -32 80 -21 51
-38 92 -77 180 -34 77 -143 290 -187 363 -25 43 -46 80 -46 82 0 2 -17 30 -38
62 -21 32 -59 90 -84 128 -65 101 -245 332 -353 455 -674 765 -1614 1280
-2610 1429 -71 11 -168 25 -215 32 -101 14 -713 21 -820 9z m680 -110 c451
-31 907 -141 1340 -323 692 -290 1282 -751 1752 -1367 273 -359 498 -785 640
-1210 86 -256 142 -494 183 -770 25 -170 47 -542 40 -675 -22 -451 -46 -626
-131 -968 -109 -440 -288 -857 -538 -1250 -67 -105 -181 -267 -239 -337 -6 -9
-30 -38 -51 -65 -104 -131 -331 -370 -466 -490 -576 -516 -1296 -871 -2055
-1015 -340 -64 -733 -88 -1064 -65 -369 26 -644 74 -961 169 -386 115 -776
295 -1095 505 -55 36 -105 68 -110 71 -11 5 -196 143 -230 171 -328 270 -565
517 -795 829 -177 239 -369 574 -475 830 -15 36 -33 79 -40 95 -7 17 -18 44
-25 60 -43 104 -134 394 -166 535 -192 827 -148 1663 129 2440 104 290 222
533 412 848 166 275 483 649 766 904 148 135 439 354 571 433 9 6 65 39 123
74 376 223 871 414 1293 497 417 82 761 103 1192 74z"/>
<path d="M4793 9161 c-82 -21 -163 -115 -163 -189 0 -44 52 -107 133 -159 150
-97 180 -119 203 -146 29 -35 31 -86 5 -118 -17 -21 -28 -24 -89 -24 -82 0
-118 16 -127 57 -7 28 -9 29 -46 23 -26 -5 -45 -3 -55 6 -13 10 -17 10 -24 -2
-11 -17 -4 -51 21 -99 37 -75 176 -119 297 -94 78 16 123 45 161 102 26 38 29
50 27 115 -4 137 -72 207 -278 288 -32 13 -67 32 -78 44 l-20 22 20 25 c11 14
31 29 46 32 28 7 64 0 64 -14 0 -4 22 -32 49 -61 48 -52 50 -53 69 -35 24 21
36 97 24 140 -4 16 -24 43 -44 59 -30 24 -48 30 -100 33 -35 2 -78 -1 -95 -5z"/>
<path d="M4065 9023 c-71 -18 -132 -38 -133 -43 -2 -6 -21 -13 -42 -16 -38 -6
-38 -7 -33 -43 3 -20 11 -49 18 -66 15 -35 65 -220 96 -357 15 -66 20 -112 16
-143 -8 -53 3 -61 78 -59 79 2 299 81 358 127 41 34 52 77 18 77 -10 0 -24 7
-31 15 -7 8 -22 15 -35 15 -22 0 -130 -30 -197 -56 -42 -15 -43 -14 -53 41 -4
22 -14 52 -21 67 -19 36 -19 36 19 47 140 43 257 95 257 115 0 9 -16 20 -39
27 -35 10 -49 8 -147 -25 -60 -20 -113 -38 -118 -39 -5 -1 -17 27 -26 63 -9
36 -20 75 -24 87 -6 19 -2 23 36 34 93 25 145 41 196 61 45 18 52 24 52 48 0
38 -29 60 -76 59 -21 -1 -97 -17 -169 -36z"/>
<path d="M5962 9019 c-82 -41 -116 -121 -93 -219 5 -25 6 -46 2 -48 -47 -16
-119 -74 -145 -116 -42 -69 -43 -154 -4 -214 65 -97 215 -132 371 -86 13 4 22
-5 37 -39 16 -37 24 -44 41 -40 11 3 35 -2 53 -12 29 -16 38 -17 65 -5 17 7
31 17 31 22 0 6 -13 37 -30 70 -16 32 -30 62 -30 67 0 5 13 14 29 21 16 6 38
21 48 32 17 19 17 20 -1 34 -18 12 -18 15 -2 38 9 14 16 27 16 29 0 5 -129 -1
-150 -8 -16 -5 -24 4 -48 52 l-30 58 37 23 c49 31 79 77 93 144 11 51 10 59
-13 104 -34 70 -89 105 -170 111 -52 3 -72 0 -107 -18z m138 -100 c18 -32 3
-97 -26 -116 -32 -20 -42 -10 -50 50 -5 38 -3 51 11 67 23 26 51 25 65 -1z
m-93 -374 c17 -33 28 -64 24 -68 -5 -5 -43 -9 -86 -10 -75 -2 -79 -1 -93 24
-13 22 -13 29 -1 54 16 32 74 67 104 63 13 -2 31 -24 52 -63z"/>
<path d="M3188 8711 c-15 -17 -15 -29 -6 -88 8 -55 33 -115 129 -309 109 -222
160 -304 191 -304 5 0 22 13 36 28 15 16 63 49 107 73 44 24 89 49 100 56 11
7 30 17 42 24 25 14 36 36 26 52 -4 7 -6 20 -5 29 7 43 -71 30 -188 -32 -41
-22 -77 -36 -81 -32 -14 14 -167 328 -203 416 -29 70 -63 106 -99 106 -20 0
-39 -8 -49 -19z"/>
<path d="M7165 8436 c-27 -7 -69 -22 -93 -35 -65 -33 -175 -143 -210 -209 -51
-96 -58 -212 -19 -304 45 -104 171 -147 277 -93 81 41 102 94 55 140 -31 31
-53 31 -115 0 -89 -45 -109 -28 -95 83 12 101 85 196 192 251 59 29 83 27 122
-13 28 -29 32 -40 27 -63 -21 -89 -25 -119 -20 -154 7 -42 17 -49 32 -23 6 10
34 21 73 28 51 9 66 16 77 36 18 35 6 143 -23 201 -35 68 -118 145 -170 158
-51 13 -45 13 -110 -3z"/>
<path d="M2595 8316 c-26 -19 -24 -70 4 -135 18 -44 152 -230 284 -396 91
-115 143 -141 172 -86 8 17 59 68 112 114 125 107 130 113 115 138 -7 10 -12
26 -12 34 0 40 -79 8 -173 -71 -37 -29 -69 -54 -71 -54 -8 0 -198 247 -256
333 -54 80 -113 137 -140 137 -9 0 -25 -6 -35 -14z"/>
<path d="M7850 8116 c-87 -21 -95 -24 -95 -46 0 -29 58 -68 78 -52 6 5 32 12
56 16 39 6 43 5 36 -11 -4 -10 -14 -40 -22 -67 -14 -46 -14 -49 8 -72 12 -13
25 -24 28 -24 17 1 33 21 41 51 4 19 17 66 28 106 l20 72 -23 25 c-28 31 -32
31 -155 2z"/>
<path d="M7689 7893 c-177 -158 -268 -242 -330 -303 -65 -64 -67 -68 -66 -115
0 -28 -2 -57 -4 -65 -3 -11 6 -16 29 -18 43 -4 77 23 295 237 158 156 227 238
227 273 0 19 -41 58 -61 58 -9 0 -49 -30 -90 -67z"/>
<path d="M2245 7924 c-32 -34 -31 -49 3 -80 15 -14 56 -54 92 -87 330 -311
367 -340 399 -320 9 5 30 6 48 3 18 -4 35 -5 38 -2 10 11 5 58 -10 79 -18 25
-265 248 -312 281 -18 13 -56 44 -85 68 -54 46 -85 66 -125 78 -17 6 -29 1
-48 -20z"/>
<path d="M5371 7870 c-123 -45 -203 -122 -272 -260 -34 -69 -38 -79 -74 -215
-64 -243 -66 -567 -4 -880 11 -55 24 -113 28 -130 5 -16 12 -42 15 -57 4 -16
10 -28 14 -28 5 0 3 46 -4 103 -8 57 -13 213 -14 355 0 210 3 274 20 380 20
125 26 147 70 289 27 88 100 218 143 256 152 133 335 94 417 -90 47 -104 49
-338 5 -478 -9 -27 -23 -72 -32 -100 -29 -89 -121 -264 -180 -340 -118 -153
-172 -231 -213 -308 -23 -43 -40 -80 -38 -83 3 -2 29 24 58 58 204 238 403
401 565 464 65 25 169 25 207 0 67 -44 75 -148 17 -237 -60 -94 -202 -202
-331 -251 -70 -26 -194 -62 -293 -83 -44 -9 -84 -21 -90 -26 -15 -14 140 -11
260 6 143 20 201 37 315 93 170 83 288 228 298 364 9 117 -41 204 -145 254
-50 23 -66 26 -138 22 -71 -4 -92 -10 -170 -49 -50 -24 -93 -45 -96 -47 -3 -1
14 38 38 87 75 156 113 310 113 461 0 113 -13 177 -56 266 -39 82 -119 164
-194 197 -67 29 -172 32 -239 7z"/>
<path d="M1980 7592 c-16 -18 -102 -143 -132 -190 -9 -15 -31 -55 -48 -90
l-31 -63 23 -19 c13 -10 34 -25 48 -32 49 -26 237 -145 256 -163 6 -5 40 -30
75 -54 35 -24 73 -58 84 -74 35 -52 50 -56 86 -19 17 17 35 32 39 32 8 0 75
113 127 215 36 70 49 136 31 164 -10 17 -14 18 -33 5 -12 -8 -29 -12 -37 -9
-20 8 -52 -31 -113 -134 -26 -45 -50 -81 -52 -81 -15 0 -123 77 -123 88 0 7
27 64 60 127 67 128 73 155 36 155 -34 0 -70 -40 -131 -147 l-52 -93 -76 50
-76 50 56 88 c76 118 97 166 83 192 -14 26 -79 28 -100 2z"/>
<path d="M8070 7580 c-14 -11 -28 -20 -31 -20 -7 0 -301 -178 -379 -229 -30
-20 -68 -43 -83 -51 -16 -8 -35 -30 -43 -49 -14 -34 -14 -35 27 -74 l41 -39
41 29 c33 23 135 85 251 151 10 6 8 2 -41 -75 -61 -97 -65 -135 -17 -186 23
-25 30 -27 72 -22 l47 6 -73 -42 c-41 -23 -91 -58 -112 -78 -37 -35 -38 -38
-27 -73 12 -37 28 -48 77 -48 34 0 161 61 213 103 43 34 140 98 167 110 49 22
138 89 158 118 25 37 24 90 -3 118 -14 14 -15 14 -323 -60 -46 -11 -88 -19
-94 -17 -5 2 1 18 16 35 14 17 26 34 26 37 0 6 84 126 130 186 37 47 63 126
50 151 -10 18 -41 39 -57 39 -4 0 -19 -9 -33 -20z"/>
<path d="M4378 7170 c-35 -27 -42 -52 -27 -94 10 -28 9 -44 -6 -97 -27 -92
-25 -288 4 -383 11 -38 20 -71 18 -72 -1 -1 -21 -11 -43 -22 -45 -23 -88 -68
-112 -120 -11 -23 -21 -31 -31 -26 -114 48 -347 53 -472 9 -38 -14 -44 -14
-59 0 -23 21 -52 19 -82 -5 -33 -25 -39 -49 -22 -88 25 -60 106 -54 136 9 15
33 21 36 95 52 43 9 112 17 153 17 69 0 233 -30 248 -44 3 -4 7 -35 8 -69 4
-117 49 -218 126 -280 71 -58 78 -56 115 21 55 118 240 294 349 334 19 7 34
16 34 21 0 35 -76 117 -143 155 -48 28 -142 52 -201 52 -42 0 -47 2 -60 34
-27 65 -40 209 -27 304 16 115 27 150 54 158 37 11 57 35 57 69 0 66 -64 103
-112 65z"/>
<path d="M1660 6800 c-14 -4 -40 -8 -58 -9 -19 -1 -35 -7 -38 -16 -3 -8 -20
-29 -38 -48 -17 -19 -44 -65 -60 -103 -15 -38 -39 -92 -52 -121 -29 -62 -29
-75 -6 -101 18 -21 22 -22 282 -102 91 -28 176 -56 190 -62 14 -5 58 -21 99
-34 57 -18 78 -21 88 -12 8 6 11 18 8 26 -3 8 6 26 20 40 53 52 65 85 66 168
1 191 -72 342 -173 358 -48 8 -85 -10 -130 -63 l-33 -40 -15 28 c-17 32 -96
102 -113 100 -7 -1 -23 -5 -37 -9z m24 -178 c9 -26 20 -78 23 -116 l6 -68 -24
7 c-13 4 -45 16 -71 27 -43 18 -48 24 -48 52 0 34 32 110 56 138 23 24 37 14
58 -40z m283 -5 c37 -55 56 -149 44 -224 -5 -36 -13 -68 -16 -71 -3 -3 -15 0
-28 6 -12 6 -48 22 -79 36 -32 14 -58 27 -58 29 0 3 11 44 25 92 29 99 60 165
78 165 6 0 22 -15 34 -33z"/>
<path d="M8495 6721 c-243 -87 -450 -145 -520 -146 l-60 0 -3 -57 c-2 -42 4
-76 22 -125 71 -197 119 -275 172 -286 18 -3 24 0 24 14 0 10 7 24 15 33 22
22 19 44 -21 153 -20 54 -37 104 -38 112 0 8 21 20 59 31 33 9 66 19 73 21 9
3 32 -37 68 -121 30 -68 61 -131 69 -139 33 -34 65 45 40 102 -47 108 -75 190
-68 196 18 15 156 52 163 44 4 -4 21 -50 39 -101 45 -133 66 -172 95 -172 32
0 56 30 56 70 0 60 -92 340 -112 340 -5 0 -8 11 -8 25 0 29 0 29 -65 6z"/>
<path d="M4809 6295 c-69 -18 -148 -75 -242 -174 -113 -119 -139 -166 -145
-257 -4 -62 -1 -80 22 -129 33 -73 73 -124 159 -206 223 -212 422 -223 620
-36 117 112 166 268 121 389 -68 183 -247 366 -404 412 -62 18 -69 19 -131 1z"/>
<path d="M1885 5999 c-33 -11 -146 -41 -252 -68 -203 -52 -332 -105 -351 -144
-6 -12 -14 -37 -17 -55 -6 -30 -3 -37 34 -70 22 -20 68 -47 103 -60 179 -66
256 -98 282 -115 15 -11 43 -21 61 -22 18 -1 63 -16 99 -34 87 -42 102 -39 98
19 -5 55 -25 74 -103 96 -33 9 -59 22 -60 28 -1 6 0 42 1 81 2 63 5 73 37 111
22 27 46 45 66 50 18 3 52 18 76 32 40 24 43 27 37 60 -3 19 -1 43 4 52 11 21
-5 45 -35 53 -11 3 -47 -3 -80 -14z m-175 -276 c-1 -16 -6 -51 -13 -79 l-12
-50 -107 45 c-65 28 -103 50 -98 55 11 11 173 54 208 55 18 1 22 -4 22 -26z"/>
<path d="M8585 5952 c-35 -12 -60 -35 -98 -88 -21 -28 -37 -54 -37 -57 0 -19
-104 -179 -130 -201 -57 -47 -121 -27 -140 45 -20 72 4 150 52 170 23 9 27 16
21 33 -7 21 -7 35 -1 71 4 27 -23 30 -76 7 -153 -68 -153 -378 0 -468 89 -53
202 -36 279 40 51 52 68 81 106 193 36 102 48 123 74 123 26 0 39 -10 54 -37
16 -31 14 -56 -6 -75 -10 -10 -34 -33 -53 -53 -19 -19 -38 -35 -42 -35 -5 0
-8 -8 -8 -19 0 -43 128 -61 178 -24 48 35 64 79 59 165 -3 63 -9 84 -30 117
-47 71 -141 114 -202 93z"/>
<path d="M5380 5840 c0 -15 12 -27 43 -40 23 -11 50 -20 60 -20 27 0 21 -45
-16 -131 -40 -91 -100 -171 -194 -260 -78 -73 -148 -117 -238 -148 -87 -31
-90 -30 -109 39 -15 52 -20 60 -42 60 -30 0 -30 -1 0 -86 47 -133 56 -153 87
-210 30 -57 31 -59 14 -92 -8 -19 -13 -37 -10 -40 3 -3 5 -2 5 3 0 4 6 3 13
-3 10 -9 13 -5 11 18 -2 32 13 41 23 13 8 -21 17 -32 100 -121 145 -157 325
-260 573 -327 107 -29 115 -32 112 -45 -2 -11 0 -11 11 -2 11 9 33 10 83 3
108 -15 316 -23 349 -13 28 8 30 12 33 63 5 77 -16 307 -39 417 -96 472 -335
762 -748 907 -107 37 -121 39 -121 15z m410 -283 c0 -123 -42 -228 -139 -350
-121 -152 -271 -248 -421 -269 -60 -8 -85 -9 -87 -1 -2 6 -13 9 -24 6 -18 -5
-49 12 -49 27 0 4 19 15 43 25 23 10 62 27 87 38 116 50 283 187 375 307 75
98 130 205 161 309 4 11 10 8 29 -9 21 -20 25 -33 25 -83z m280 -311 c0 -159
-137 -371 -320 -495 -138 -92 -276 -124 -361 -81 -44 23 -44 34 -1 43 32 7
149 61 197 92 181 116 365 343 420 518 l18 58 23 -42 c17 -28 24 -57 24 -93z
m160 -524 c5 -59 10 -137 10 -174 l0 -68 -75 0 c-74 0 -246 15 -294 26 -21 4
-19 7 25 37 63 41 251 230 284 283 22 37 26 39 32 23 4 -11 12 -68 18 -127z"/>
<path d="M3440 5721 c-359 -66 -557 -203 -601 -418 -16 -76 -1 -163 37 -229
36 -61 116 -131 187 -164 131 -61 351 -67 525 -13 29 9 54 14 56 12 3 -2 7
-16 11 -31 6 -23 2 -29 -25 -43 -37 -19 -38 -52 -2 -47 25 4 30 -13 7 -22 -10
-4 -15 -16 -13 -33 3 -23 -2 -29 -29 -38 -38 -13 -32 -29 14 -42 31 -8 32 -9
20 -33 -7 -14 -35 -36 -62 -50 -27 -14 -51 -33 -53 -42 -4 -19 44 -48 78 -48
27 0 37 -27 18 -46 -8 -9 -37 -21 -64 -28 -42 -10 -49 -16 -49 -37 0 -22 5
-24 48 -27 32 -2 57 2 73 13 32 21 31 2 -2 -42 -19 -25 -33 -34 -52 -32 -51 4
-72 -1 -72 -16 0 -11 -7 -14 -24 -9 -37 9 -41 -13 -5 -31 17 -9 28 -19 25 -22
-9 -10 44 -33 76 -33 37 0 29 -14 -25 -41 -35 -18 -53 -21 -115 -16 -82 6 -90
-4 -29 -36 41 -21 46 -31 20 -42 -17 -6 -16 -7 2 -18 20 -11 139 -12 156 -1
19 11 8 -14 -17 -39 -16 -16 -46 -30 -80 -37 -31 -7 -53 -16 -51 -23 1 -7 -7
-12 -18 -12 -22 0 -45 -17 -45 -34 0 -6 17 -22 37 -35 l36 -25 -27 -11 c-15
-5 -34 -10 -42 -10 -8 0 -14 -4 -14 -8 0 -36 93 -43 164 -12 25 10 46 15 46
11 0 -16 -70 -71 -90 -71 -19 0 -24 -9 -21 -36 1 -6 -9 -16 -21 -22 -33 -16
-125 -33 -143 -26 -8 3 -15 1 -15 -4 0 -17 42 -42 69 -42 23 0 23 -1 8 -18
-27 -29 -21 -49 16 -55 40 -6 84 17 116 64 19 27 22 29 15 9 -4 -14 -9 -38
-10 -55 -2 -21 -17 -43 -55 -77 -28 -27 -54 -46 -57 -44 -2 3 -16 -4 -30 -14
-17 -14 -40 -20 -72 -20 -45 0 -48 2 -60 33 -6 17 -16 42 -20 54 -5 12 -22 29
-38 37 -44 23 -51 61 -12 61 25 0 15 55 -20 115 -31 53 -64 130 -57 136 2 2
20 -2 40 -8 73 -22 76 44 5 97 -23 17 -45 40 -49 51 -7 21 -7 21 23 7 35 -18
54 -6 43 26 -3 12 -31 49 -61 84 -30 34 -54 65 -54 69 0 15 20 8 32 -12 7 -11
18 -20 25 -20 20 0 15 62 -7 90 -27 35 -25 48 6 42 25 -5 26 -3 19 29 -4 19
-13 43 -20 54 -7 11 -13 43 -14 70 -2 63 -8 85 -33 109 -28 27 -38 7 -38 -80
0 -57 -4 -74 -19 -88 -10 -10 -21 -32 -25 -49 -14 -82 -19 -95 -42 -108 -31
-16 -25 -34 11 -34 16 -1 30 -6 33 -13 6 -18 -45 -78 -99 -118 -65 -47 -65
-68 -2 -61 35 4 53 12 70 32 14 16 23 21 23 12 0 -8 -17 -34 -39 -58 -21 -24
-42 -55 -46 -69 -4 -14 -14 -34 -21 -45 -21 -29 -18 -93 4 -97 12 -3 0 -17
-45 -52 -50 -39 -64 -56 -69 -84 -6 -29 -3 -39 16 -54 43 -35 75 -12 64 46 -5
30 -4 35 9 30 9 -3 24 -1 34 5 18 9 19 7 13 -37 -7 -58 -64 -132 -101 -132
-16 0 -109 -85 -109 -101 0 -5 -7 -6 -15 -3 -9 4 -15 1 -15 -7 0 -10 -3 -10
-14 1 -19 19 -32 70 -18 70 22 0 81 46 82 63 0 10 -11 22 -24 26 -25 10 -41
37 -26 46 5 3 6 13 3 21 -4 11 -14 14 -34 10 -34 -7 -36 2 -9 37 25 32 25 54
1 62 -26 8 -48 44 -56 91 -4 21 -9 46 -13 54 -3 8 -6 37 -6 64 -1 32 -6 51
-15 54 -10 3 -12 -3 -6 -27 7 -33 -10 -193 -27 -249 -7 -23 -21 -38 -49 -52
-47 -25 -53 -56 -12 -66 21 -6 30 -2 41 14 24 36 42 28 35 -15 -7 -50 -21 -63
-71 -67 -55 -4 -72 -20 -72 -65 0 -55 11 -66 44 -40 14 11 34 18 42 15 9 -3
24 -1 35 4 23 13 24 4 4 -43 -20 -49 -62 -80 -97 -73 -28 5 -78 -10 -78 -24 0
-4 9 -19 21 -33 14 -19 18 -31 11 -43 -12 -21 -4 -54 13 -54 7 0 26 16 42 35
25 31 30 33 47 20 23 -17 14 -45 -14 -45 -30 0 -70 -29 -70 -51 0 -26 -45 -36
-69 -15 -22 20 -31 20 -31 -1 0 -14 -2 -14 -21 3 l-22 19 7 -53 c9 -71 12 -77
51 -98 29 -16 37 -16 59 -4 19 10 29 10 39 2 10 -9 16 -9 25 0 8 8 9 6 6 -9
-3 -11 -17 -26 -30 -32 -13 -6 -24 -15 -24 -21 0 -5 -13 -7 -29 -4 -24 5 -35
1 -55 -21 -19 -21 -28 -24 -43 -17 -31 17 -53 -3 -53 -48 0 -35 3 -39 36 -50
20 -7 51 -10 70 -7 19 3 34 2 34 -3 0 -12 -27 -20 -73 -20 -23 0 -59 -3 -79
-6 -32 -6 -38 -11 -38 -30 0 -13 6 -24 13 -24 8 0 8 -3 -2 -9 -12 -8 -12 -13
3 -35 9 -14 23 -26 30 -26 8 0 16 -6 19 -12 3 -9 10 -7 21 7 8 11 16 16 16 10
0 -5 4 -4 9 4 7 11 13 8 26 -13 20 -31 35 -34 35 -7 0 31 19 35 30 7 5 -14 12
-26 14 -26 3 0 2 8 -1 17 -6 16 -5 16 10 5 9 -8 21 -11 26 -8 5 4 12 2 16 -3
18 -30 69 -40 213 -41 359 -4 503 1 707 20 168 16 269 21 530 26 138 3 297 6
355 7 58 1 157 -2 220 -8 63 -5 153 -9 200 -8 102 1 280 1 370 0 120 -2 254 6
335 19 44 8 112 14 151 14 39 0 95 4 125 10 30 5 99 12 154 14 100 5 115 7
148 19 9 4 25 10 35 13 9 4 31 7 47 8 17 1 36 5 43 9 7 5 12 4 12 -3 0 -6 10
-4 24 5 17 11 26 13 31 5 5 -8 11 -8 21 1 8 7 24 8 41 4 41 -12 63 -13 57 -3
-5 8 31 13 51 7 31 -9 71 -4 82 10 11 14 12 14 13 -1 0 -14 7 -17 33 -14 17 3
32 5 32 6 0 7 107 5 111 -2 3 -4 0 -8 -5 -8 -6 0 -11 -5 -11 -12 0 -6 3 -8 6
-5 4 3 15 2 25 -3 16 -9 17 -7 9 20 -5 17 -5 28 0 25 5 -3 12 0 15 6 4 5 13 8
21 5 8 -3 25 -1 38 4 13 5 27 6 30 3 7 -7 207 -5 323 3 70 5 82 3 91 -11 8
-16 10 -16 15 -1 4 11 19 16 47 16 25 0 39 -4 35 -10 -3 -5 -21 -10 -40 -10
-20 0 -35 -6 -39 -15 -3 -8 -1 -15 4 -15 6 0 10 3 10 8 0 4 83 5 185 4 139 -3
190 -1 201 9 13 11 14 9 9 -13 -6 -24 -4 -25 41 -32 26 -3 72 -6 103 -6 l56 0
33 60 c32 58 46 72 54 50 2 -7 32 -10 78 -8 66 3 72 5 50 15 l-25 12 33 0 c27
1 32 -2 32 -23 0 -24 20 -35 53 -28 12 2 17 13 17 37 0 36 10 47 67 76 47 24
53 24 53 -2 0 -16 5 -20 28 -17 23 3 27 8 30 41 2 20 7 37 13 37 5 0 9 20 9
45 0 25 -4 45 -10 45 -6 0 -10 38 -10 95 0 57 4 95 10 95 6 0 10 14 10 31 0
25 3 29 19 24 14 -4 23 0 31 14 10 19 5 23 -47 47 -169 75 -262 111 -393 155
l-145 48 -45 -26 c-158 -90 -147 -85 -179 -68 -17 8 -36 15 -44 15 -8 0 -26
11 -41 25 -21 19 -26 33 -26 70 0 43 13 58 34 38 3 -4 14 -8 22 -9 34 -5 83
-35 89 -55 9 -27 31 -18 27 11 -3 27 -20 40 -105 84 -33 17 -63 37 -65 45 -3
10 0 12 12 8 9 -4 24 2 36 15 19 21 20 21 40 3 11 -10 23 -16 26 -13 8 9 -48
49 -77 55 -38 7 -49 60 -18 86 12 10 29 15 38 12 8 -3 36 -8 61 -11 l45 -5
-50 46 c-27 26 -40 41 -28 34 12 -7 25 -10 29 -6 9 9 -25 47 -43 47 -7 0 -13
5 -13 10 0 6 14 10 30 10 36 0 37 6 9 36 -12 13 -23 34 -24 47 -2 13 -14 36
-28 52 -48 53 -57 65 -57 76 0 7 7 8 18 4 61 -25 73 -4 21 40 -24 20 -29 29
-20 38 16 16 14 37 -4 37 -8 0 -15 5 -15 10 0 6 6 10 14 10 24 0 27 30 7 57
-15 18 -20 40 -20 85 0 33 -1 62 -4 64 -2 2 -16 -13 -31 -34 -31 -45 -36 -79
-6 -43 18 20 20 21 20 5 -1 -29 -26 -93 -44 -113 -21 -23 -20 -28 4 -34 15 -4
20 -14 20 -36 0 -17 0 -34 1 -38 0 -5 -14 -12 -33 -17 -18 -6 -36 -15 -40 -20
-11 -16 -9 -86 2 -86 6 0 10 -10 10 -21 0 -16 5 -20 20 -16 13 3 20 0 20 -9 0
-8 -10 -14 -24 -14 -42 0 -81 -20 -98 -51 -20 -33 -24 -74 -8 -84 13 -8 43 53
37 76 -3 11 -1 19 4 19 5 0 9 -6 9 -14 0 -26 23 -30 40 -8 17 21 18 21 35 2 9
-10 24 -16 32 -13 10 4 14 2 11 -7 -2 -7 -22 -18 -45 -25 -25 -7 -58 -30 -87
-59 -49 -50 -51 -53 -37 -75 8 -12 13 -12 34 2 13 8 39 17 58 19 24 2 37 10
44 26 5 12 13 22 16 22 9 0 19 -38 19 -72 0 -20 -5 -28 -18 -28 -23 0 -42 -19
-42 -43 0 -14 6 -18 28 -15 23 3 27 -1 30 -23 3 -22 -2 -28 -23 -33 -64 -16
-154 -94 -155 -133 0 -28 4 -28 30 -5 11 9 30 19 43 22 12 3 24 15 26 25 2 11
13 33 24 49 20 28 21 28 28 7 5 -11 13 -21 18 -21 5 0 11 -23 13 -50 l3 -50
-36 0 c-20 0 -42 -7 -49 -15 -7 -8 -18 -15 -25 -15 -6 0 -19 -8 -28 -17 -13
-15 -14 -22 -2 -43 12 -23 11 -27 -18 -52 l-31 -28 -33 20 c-19 11 -42 20 -51
20 -29 0 -260 -79 -268 -91 -15 -24 -67 -7 -129 42 -36 28 -65 54 -65 58 0 19
16 19 36 0 26 -24 54 -19 54 9 0 9 -6 41 -13 69 -11 42 -11 52 0 59 22 14 5
43 -38 65 -37 18 -39 22 -39 66 l0 46 25 -23 c23 -22 25 -22 32 -5 4 12 2 20
-7 23 -25 9 -61 54 -51 66 6 7 4 18 -5 30 -9 13 -14 46 -14 98 0 45 -4 78 -10
78 -5 0 -10 -22 -10 -50 0 -38 -4 -50 -15 -50 -8 0 -15 -5 -15 -10 0 -6 7 -13
15 -16 8 -4 15 -18 15 -33 0 -22 -4 -27 -22 -27 -19 1 -23 -5 -24 -28 -1 -16
-8 -35 -18 -41 -9 -7 -16 -17 -16 -24 0 -6 -6 -11 -13 -11 -19 0 -60 -47 -52
-59 4 -7 22 -9 47 -5 39 7 40 6 26 -15 -7 -12 -24 -24 -38 -27 -53 -12 -60
-16 -60 -34 0 -10 7 -20 15 -24 8 -3 15 -1 15 4 0 6 7 10 15 10 8 0 15 5 15
12 0 9 3 9 12 0 8 -8 8 -15 -3 -28 -7 -9 -15 -28 -17 -41 -3 -23 0 -25 23 -19
24 6 25 5 15 -14 -6 -11 -15 -18 -21 -15 -5 4 -9 0 -9 -7 0 -8 -20 -24 -45
-36 -25 -12 -45 -27 -45 -34 0 -6 -10 -22 -22 -35 -13 -14 -18 -27 -12 -32 16
-17 94 5 125 35 l29 28 0 -26 c0 -45 -10 -58 -44 -58 -17 0 -42 -9 -55 -19
-20 -16 -23 -24 -19 -59 4 -29 2 -42 -8 -46 -16 -6 -29 10 -14 19 13 8 13 62
1 70 -15 8 -41 -24 -41 -51 0 -13 5 -24 12 -24 9 0 9 -3 -1 -12 -10 -11 -15
-9 -27 6 -19 27 -18 50 6 71 23 21 18 35 -14 35 -15 0 -26 7 -29 20 -5 20 2
24 36 21 9 -1 17 4 17 13 0 9 7 16 15 16 11 0 13 8 8 33 -7 40 -20 57 -38 51
-8 -3 -20 4 -27 15 -7 12 -22 21 -34 21 -13 0 -25 10 -32 25 -18 39 -15 39 31
0 l42 -36 3 26 c2 14 -5 38 -15 52 -40 56 -73 108 -73 116 0 4 11 7 25 7 15 0
25 -6 25 -14 0 -20 19 -31 32 -18 12 12 4 42 -20 68 -20 22 -52 71 -52 79 0 3
16 3 35 -1 30 -5 35 -3 35 12 0 11 -18 36 -40 57 -26 24 -40 46 -40 62 0 28 9
32 29 13 10 -10 10 -7 -1 17 -7 17 -17 33 -23 38 -6 4 -5 10 4 16 9 6 11 15 6
27 -13 31 -15 83 -3 90 6 4 8 3 5 -2 -8 -14 9 -38 22 -30 13 8 -3 46 -25 59
-9 5 -14 26 -14 57 0 28 -4 50 -10 50 -5 0 -10 -17 -10 -37 0 -21 -7 -47 -15
-57 -19 -25 -19 -37 0 -30 20 8 20 -34 1 -72 -9 -15 -12 -39 -9 -56 5 -25 3
-28 -18 -26 -15 2 -24 -3 -27 -14 -3 -13 3 -18 22 -18 42 0 40 -20 -6 -63 -25
-23 -48 -52 -52 -63 -4 -12 -17 -25 -29 -29 -12 -4 -24 -8 -27 -9 -3 -2 -17
-6 -31 -10 -21 -6 -26 -13 -23 -34 3 -33 -15 -59 -28 -40 -7 9 -8 4 -5 -15 3
-18 0 -26 -7 -24 -14 5 -14 38 -1 53 7 9 13 9 24 1 11 -10 12 -8 5 13 -4 14
-8 35 -9 48 0 21 -4 23 -37 20 -35 -3 -43 2 -39 26 5 26 -11 62 -29 63 -17 2
-18 -1 -9 -19 6 -11 8 -29 6 -40 -3 -11 1 -31 10 -44 14 -22 14 -24 -1 -18 -9
3 -13 10 -10 15 3 5 0 9 -7 9 -7 0 -9 10 -7 25 3 14 2 25 -1 25 -4 0 -6 17 -5
38 3 39 -14 95 -25 87 -4 -2 -15 5 -24 16 -10 11 -22 17 -29 13 -6 -4 -9 -1
-6 7 3 8 11 13 18 11 24 -6 3 22 -23 29 l-26 7 -3 -66 c-3 -57 -6 -67 -20 -64
-13 2 -18 -4 -18 -22 0 -28 -20 -47 -21 -19 0 14 -2 15 -6 3 -3 -8 -12 -19
-20 -23 -16 -10 -8 -27 13 -27 15 0 44 -23 44 -35 0 -12 -54 -55 -64 -52 -17
6 -49 -53 -37 -67 6 -7 7 -16 3 -20 -4 -4 0 -6 8 -4 12 2 14 -7 12 -52 -3 -45
-9 -59 -30 -76 -14 -11 -23 -25 -19 -30 3 -6 2 -16 -4 -24 -7 -12 -9 -11 -10
5 0 18 -1 18 -7 3 -7 -17 -9 -17 -42 0 -50 24 -52 49 -4 44 34 -4 36 -3 31 17
-3 11 -1 24 4 27 20 12 8 34 -19 34 -17 0 -32 8 -40 21 -12 19 -11 20 6 15 14
-5 24 1 37 21 18 26 17 27 -9 48 -14 11 -26 28 -26 37 0 9 -4 19 -8 22 -5 3
-8 38 -7 78 2 67 -6 98 -25 98 -4 0 -8 -30 -9 -67 -1 -45 -6 -70 -16 -77 -8
-6 -21 -27 -29 -47 -14 -34 -14 -38 4 -59 22 -26 25 -36 10 -45 -13 -8 -97 62
-103 86 -4 15 -2 17 13 9 11 -6 21 -6 24 -2 7 11 -24 72 -51 101 -18 19 -20
27 -11 46 6 13 8 31 4 41 -4 9 -8 58 -10 108 -4 99 -13 146 -28 146 -5 0 -7
-4 -4 -8 5 -9 7 -75 3 -164 -1 -32 1 -58 4 -58 13 0 -5 -62 -20 -68 -41 -15
-42 -57 0 -66 36 -7 37 -34 2 -51 -11 -6 -28 -17 -36 -24 -9 -7 -21 -10 -27
-6 -5 3 -10 2 -10 -4 0 -19 -62 1 -91 30 -15 15 -37 30 -48 34 -12 3 -21 12
-21 20 0 19 38 26 54 9 8 -8 25 -15 38 -16 20 -3 23 2 24 32 0 19 4 43 8 53
13 29 -1 50 -29 43 -20 -5 -25 -3 -25 13 0 22 -25 45 -39 37 -5 -4 -12 -2 -16
4 -4 6 13 10 44 10 35 0 51 4 51 13 0 22 -28 54 -60 67 -26 11 -30 17 -30 51
0 27 4 39 14 39 8 0 18 -4 21 -10 11 -17 35 -11 35 9 0 19 -43 71 -59 71 -5 0
-22 5 -37 10 l-27 11 21 15 c16 11 27 12 41 4 29 -15 61 -12 61 5 0 17 -29 48
-74 78 -14 10 -26 27 -26 39 0 17 -3 19 -12 10 -16 -16 -28 -15 -28 3 0 23 31
31 42 12 12 -23 38 -22 38 1 0 10 5 23 12 30 9 9 9 12 -3 12 -22 0 -51 62 -44
92 7 26 -8 67 -28 80 -6 3 -12 35 -14 70 -3 35 -7 70 -10 78 -8 23 -21 -16
-22 -66 -1 -23 -8 -55 -16 -70 -8 -16 -15 -40 -15 -54 0 -18 -9 -31 -30 -43
-20 -12 -30 -26 -30 -43 0 -28 14 -31 38 -7 16 16 17 15 20 -1 2 -9 -4 -33
-13 -52 -17 -37 -43 -44 -69 -19 -11 12 -21 13 -41 5 -43 -16 -48 -13 -41 25
5 24 2 42 -10 60 -9 14 -14 25 -10 25 3 0 1 11 -4 25 -11 30 0 32 36 9 l25
-17 -12 27 c-9 19 -9 32 -1 50 9 20 7 27 -9 42 -18 16 -20 29 -17 108 2 65 0
90 -9 93 -8 3 -13 25 -14 56 l-1 52 -8 -53 c-5 -36 -16 -61 -31 -75 -20 -19
-21 -22 -6 -25 9 -2 17 -8 17 -13 0 -5 6 -9 14 -9 11 0 13 -9 9 -37 -3 -28
-16 -48 -46 -75 -23 -21 -36 -38 -28 -38 8 0 11 -7 8 -20 -4 -15 0 -20 13 -20
32 0 32 -18 2 -34 -28 -14 -48 -43 -38 -53 2 -3 13 0 24 6 34 18 37 14 37 -56
0 -66 0 -67 -34 -81 -19 -7 -42 -11 -52 -9 -21 6 -28 -8 -24 -46 2 -15 -2 -30
-7 -34 -7 -4 -9 2 -5 16 4 17 2 21 -9 17 -8 -3 -14 -1 -14 4 0 17 -25 11 -37
-10 -15 -23 -7 -51 12 -44 7 3 16 0 21 -7 4 -7 3 -10 -4 -5 -6 4 -17 -5 -25
-20 -9 -17 -17 -23 -21 -15 -9 14 -36 15 -36 0 0 -5 4 -8 8 -5 5 3 6 -8 4 -25
-3 -17 0 -29 7 -29 6 0 11 -13 11 -29 0 -20 -6 -30 -20 -34 -14 -4 -20 0 -21
11 0 10 -2 27 -3 39 -1 12 1 20 6 17 12 -7 10 10 -2 22 -6 6 -14 43 -18 81 -7
61 -6 70 8 66 11 -3 10 -1 -2 7 -12 7 -18 24 -18 47 0 26 -3 34 -11 26 -6 -6
-11 -50 -11 -99 -1 -49 -6 -95 -12 -103 -9 -12 -8 -13 4 -6 8 5 4 -7 -10 -31
-71 -115 -97 -194 -65 -194 8 0 15 6 15 13 0 8 4 7 10 -3 8 -12 10 -12 10 -1
0 8 2 12 5 9 3 -2 0 -19 -6 -37 -10 -27 -13 -30 -27 -19 -12 10 -14 10 -8 1 4
-8 1 -13 -9 -13 -9 0 -13 -5 -10 -10 4 -6 10 -8 15 -5 4 3 6 -5 2 -17 -3 -11
-1 -19 4 -15 5 3 18 -1 28 -9 18 -13 18 -15 2 -39 l-17 -26 -20 22 c-21 25
-25 19 -7 -11 10 -16 8 -26 -10 -58 -12 -22 -22 -51 -22 -66 0 -14 -5 -26 -11
-26 -6 0 -3 -7 5 -16 9 -8 16 -20 16 -25 0 -5 10 -9 22 -9 l21 0 -21 -23 c-13
-14 -22 -36 -22 -55 0 -18 -4 -32 -8 -32 -5 0 -16 -16 -25 -35 -12 -26 -23
-35 -41 -35 -13 0 -26 3 -28 8 -1 4 -26 18 -54 31 -54 25 -122 81 -161 133
-39 54 -25 58 26 7 27 -28 57 -49 70 -49 27 0 27 6 -4 42 -24 28 -33 53 -17
46 4 -2 21 -10 37 -18 17 -8 37 -20 46 -27 24 -20 49 -6 46 26 -5 39 -13 48
-49 56 -41 8 -154 79 -151 93 2 6 -4 9 -12 6 -12 -5 -12 -1 -3 24 l12 31 42
-31 c30 -21 48 -28 63 -23 21 7 21 7 -4 27 -34 27 -34 51 1 38 14 -6 41 -10
60 -10 31 0 35 3 32 22 -2 18 -12 25 -45 32 -30 6 -54 22 -90 59 -29 30 -40
47 -28 43 66 -24 135 -18 135 13 0 17 -37 41 -64 41 -6 0 -21 7 -32 16 -19 15
-18 15 4 11 12 -3 20 -1 17 3 -3 5 1 10 7 13 24 8 -22 47 -47 41 -15 -4 -24 0
-28 10 -4 9 -11 16 -18 16 -15 0 -69 39 -69 51 0 5 9 9 20 9 11 0 20 -4 20 -9
0 -12 66 -24 89 -16 11 3 21 14 23 23 4 13 -1 18 -21 20 -14 1 -36 13 -48 27
-12 14 -25 25 -28 25 -26 -1 -34 2 -39 16 -4 9 -1 23 6 32 7 8 12 23 10 33 -2
13 5 20 22 25 30 7 43 34 17 34 -11 0 -22 6 -24 13 -4 10 -6 10 -6 0 -1 -18
-38 -16 -72 4 -31 18 -39 43 -14 43 19 0 19 19 0 26 -8 4 -12 10 -9 15 3 5 15
2 27 -6 12 -8 29 -15 39 -15 10 0 18 -7 18 -15 0 -21 17 -19 17 3 0 20 -25 52
-42 52 -6 0 -25 15 -43 33 -38 39 -31 64 12 47 38 -14 46 -13 46 8 0 11 -16
26 -45 40 -25 12 -45 27 -45 33 0 6 7 9 15 6 22 -9 29 12 11 32 -20 22 -20 37
0 45 32 12 40 4 53 -54 22 -99 82 -164 176 -192 22 -7 43 -17 47 -23 5 -6 8
-6 8 3 0 7 14 12 35 12 34 0 40 -6 35 -40 -1 -10 3 -9 13 5 9 11 13 23 11 27
-3 4 5 12 16 18 12 7 20 7 20 1 0 -6 12 1 26 14 15 14 32 25 39 25 7 0 20 9
30 20 10 11 25 20 33 20 9 0 12 3 9 6 -3 4 17 33 46 65 80 88 138 212 172 369
21 93 33 356 16 346 -6 -4 -11 -16 -11 -28 0 -65 -88 -353 -135 -442 -40 -75
-49 -86 -73 -86 -13 0 -20 -4 -17 -10 3 -5 0 -10 -7 -11 -7 0 -5 -4 5 -7 14
-6 9 -15 -34 -60 -29 -28 -56 -53 -60 -53 -5 -1 -13 -2 -17 -3 -5 0 -16 -9
-25 -18 -47 -47 -150 -48 -198 -2 -55 53 -61 125 -19 235 29 80 60 126 70 108
7 -11 10 -10 16 4 3 9 12 17 20 17 8 0 11 -6 8 -15 -8 -19 10 -19 26 0 14 16
34 10 24 -7 -4 -7 -2 -8 4 -4 8 5 12 -5 12 -34 0 -30 3 -39 13 -34 8 5 8 3 -2
-9 -7 -9 -11 -27 -8 -39 6 -21 5 -22 -8 -5 -12 17 -13 15 -11 -15 5 -51 5 -53
16 -42 6 6 11 26 13 45 2 19 6 40 11 47 6 11 5 25 -10 85 -1 4 -2 12 -3 18 0
5 -5 8 -10 5 -5 -3 -11 1 -14 8 -3 8 -1 16 6 19 8 2 7 6 -2 11 -8 5 -14 1 -18
-13 -4 -16 -9 -18 -22 -12 -10 6 -24 5 -35 -1 -9 -5 -20 -7 -23 -4 -7 7 56 86
68 86 5 0 9 5 9 10 0 19 32 60 42 54 5 -3 0 -16 -12 -29 -21 -23 -21 -24 -4
-52 10 -15 22 -31 27 -34 4 -3 7 -10 6 -15 0 -5 2 -19 6 -31 9 -27 25 -21 25
10 -1 29 5 57 17 87 6 14 8 43 6 65 -3 30 -2 36 6 25 6 -8 11 -23 11 -32 0
-22 9 -23 25 -2 10 14 7 25 -13 62 l-26 45 66 62 c37 34 96 86 133 116 36 29
61 55 55 57 -11 4 -205 -103 -215 -118 -9 -15 -35 -12 -53 6 -15 16 -15 18 5
31 13 9 19 21 16 29 -5 12 -10 11 -29 -7 -23 -22 -35 -21 -40 4 -2 7 -6 25 -9
42 -3 16 -9 32 -12 35 -3 3 -4 -5 -1 -17 3 -12 2 -23 -3 -25 -10 -4 -15 -90
-6 -105 8 -12 -20 -39 -30 -29 -3 3 -1 6 5 6 18 0 14 24 -7 48 -19 23 -41 29
-41 12 0 -5 5 -10 11 -10 5 0 8 -3 6 -7 -6 -12 29 -68 41 -66 5 1 12 -7 15
-17 3 -14 -5 -30 -25 -50 -29 -29 -31 -30 -45 -13 -14 17 -14 17 -10 -4 5 -24
-19 -43 -130 -101 -52 -27 -175 -79 -208 -87 -5 -1 -17 -5 -25 -8 -47 -17
-159 -37 -241 -43 -165 -11 -298 26 -379 105 -104 100 -99 226 12 347 83 90
223 149 488 205 94 20 135 22 385 23 154 1 332 -2 395 -6 84 -5 108 -5 90 3
-40 17 -195 49 -330 70 -167 25 -492 25 -630 0z m689 -347 c3 -16 1 -17 -13
-5 -19 16 -21 34 -3 29 6 -3 14 -13 16 -24z m18 -54 c-4 -24 -27 -51 -38 -45
-4 3 -6 12 -3 20 4 8 9 13 14 10 4 -2 5 7 2 20 -3 20 -1 24 12 19 8 -3 14 -14
13 -24z m-2 -149 c3 -5 1 -12 -5 -16 -5 -3 -10 1 -10 9 0 18 6 21 15 7z m-10
-71 c3 -5 1 -10 -4 -10 -6 0 -11 -4 -11 -10 0 -5 6 -9 12 -7 7 1 14 -8 16 -20
3 -17 0 -21 -12 -17 -8 3 -18 14 -21 25 -4 10 -11 19 -17 19 -6 0 -6 6 2 15
14 17 26 19 35 5z m-263 -92 c-25 -31 -81 -158 -93 -210 -11 -54 -14 -58 -41
-58 -32 0 -38 23 -11 39 16 8 15 12 -10 37 -21 21 -27 36 -27 70 0 43 1 44 53
66 28 12 70 32 92 44 48 27 50 28 37 12z m900 -800 c-7 -7 -12 -20 -12 -30 0
-11 -12 -21 -37 -27 -51 -15 -50 -15 -57 21 -4 21 -2 34 6 40 20 12 38 10 38
-5 0 -7 6 -22 14 -32 13 -18 15 -17 30 19 9 22 19 36 23 32 4 -3 1 -12 -5 -18z
m-1134 -9 c-2 -6 -8 -10 -13 -10 -5 0 -11 4 -13 10 -2 6 4 11 13 11 9 0 15 -5
13 -11z m3600 -161 c-22 -13 -41 -9 -34 8 3 9 9 27 12 41 l7 25 14 -33 c11
-26 11 -34 1 -41z m-2473 22 c-23 -45 -83 -68 -101 -38 -4 6 -3 8 3 5 11 -7
83 39 83 53 0 6 7 10 15 10 14 0 14 -3 0 -30z m-530 -120 c3 -6 -1 -7 -9 -4
-18 7 -21 14 -7 14 6 0 13 -4 16 -10z m165 -5 c-7 -9 -15 -13 -17 -11 -7 7 7
26 19 26 6 0 6 -6 -2 -15z m355 -36 c-10 -15 -25 -10 -19 6 4 8 10 12 15 9 5
-3 7 -10 4 -15z m948 -102 c-2 -4 1 -14 7 -22 7 -9 8 -15 2 -15 -17 0 -37 31
-24 39 7 4 8 12 2 21 -6 8 -10 20 -9 25 0 6 6 -1 13 -15 8 -14 12 -28 9 -33z
m-2777 5 c-4 -11 -17 -27 -30 -36 -23 -14 -24 -14 -18 7 9 36 34 69 44 59 6
-6 7 -19 4 -30z m1497 11 c3 -5 0 -17 -4 -28 -9 -19 -9 -19 -5 2 2 12 -1 24
-8 27 -8 3 -8 5 1 5 6 1 14 -2 16 -6z m-48 -23 c16 -17 16 -20 3 -15 -9 4 -19
13 -22 21 -7 19 -2 18 19 -6z m89 -56 c3 -8 2 -12 -4 -9 -6 3 -10 10 -10 16 0
14 7 11 14 -7z m-74 -45 c0 -6 -4 -7 -10 -4 -5 3 -10 11 -10 16 0 6 5 7 10 4
6 -3 10 -11 10 -16z m1687 -1 c-3 -8 -6 -5 -6 6 -1 11 2 17 5 13 3 -3 4 -12 1
-19z m-387 -22 c0 -3 -4 -8 -10 -11 -5 -3 -10 -1 -10 4 0 6 5 11 10 11 6 0 10
-2 10 -4z m64 -59 c4 -18 3 -26 -3 -23 -6 4 -13 -9 -17 -29 -6 -34 -24 -40
-24 -8 0 9 -8 26 -17 37 -17 20 -17 20 0 7 9 -7 17 -10 17 -5 0 5 5 2 10 -6 8
-11 9 -8 4 13 -3 15 -3 39 1 55 7 25 8 25 15 7 4 -11 10 -33 14 -48z m89 18
c-3 -8 -12 -15 -20 -15 -8 0 -11 -4 -8 -10 3 -5 1 -10 -4 -10 -16 0 -13 20 4
26 8 4 15 13 15 21 0 8 4 12 10 8 5 -3 7 -12 3 -20z m177 1 c0 -3 -4 -8 -10
-11 -5 -3 -10 -1 -10 4 0 6 5 11 10 11 6 0 10 -2 10 -4z m-1770 -25 c0 -10 -7
-21 -15 -25 -13 -5 -15 10 -6 42 1 1 6 2 11 2 6 0 10 -9 10 -19z m1756 -1 c11
0 12 -4 2 -19 -16 -27 -36 -16 -30 17 3 15 7 21 9 15 3 -7 11 -13 19 -13z
m-2896 -42 c0 -12 -6 -9 -26 13 -19 22 -19 22 4 8 12 -8 22 -17 22 -21z m2840
5 c0 -22 -2 -25 -10 -13 -13 20 -13 40 0 40 6 0 10 -12 10 -27z m-2423 -5 c-3
-8 -6 -5 -6 6 -1 11 2 17 5 13 3 -3 4 -12 1 -19z m1015 -21 c15 -15 16 -20 5
-32 -19 -19 -53 -23 -49 -7 1 8 -2 11 -8 7 -5 -3 -10 1 -10 10 0 9 4 14 9 11
5 -3 12 9 16 27 4 20 9 26 12 17 3 -8 14 -23 25 -33z m-97 2 c-4 -6 0 -16 8
-22 29 -24 30 -59 1 -39 -23 14 -29 72 -8 72 3 0 2 -5 -1 -11z m215 -9 c0 -5
-2 -10 -4 -10 -3 0 -8 5 -11 10 -3 6 -1 10 4 10 6 0 11 -4 11 -10z m1147 -12
c-3 -8 -6 -5 -6 6 -1 11 2 17 5 13 3 -3 4 -12 1 -19z m-1409 -61 c19 -43 14
-51 -11 -20 -13 15 -27 43 -30 62 l-7 34 18 -24 c10 -13 23 -37 30 -52z m534
43 c13 0 31 -7 41 -14 15 -12 16 -14 2 -20 -27 -10 -69 5 -89 31 -18 25 -18
25 2 14 11 -6 31 -11 44 -11z m945 -12 c-3 -7 -5 -2 -5 12 0 14 2 19 5 13 2
-7 2 -19 0 -25z m-1287 1 c0 -6 -4 -7 -10 -4 -5 3 -10 11 -10 16 0 6 5 7 10 4
6 -3 10 -11 10 -16z m625 12 c3 -5 1 -12 -5 -16 -5 -3 -10 1 -10 9 0 18 6 21
15 7z m361 -18 c-4 -4 -12 -1 -19 7 -9 10 -9 11 1 6 7 -4 12 -2 13 6 0 11 2
11 6 0 3 -7 2 -16 -1 -19z m238 2 c-6 -16 -24 -21 -24 -7 0 11 11 22 21 22 5
0 6 -7 3 -15z m-540 -29 c4 -15 15 -26 29 -29 21 -3 21 -4 3 -12 -15 -6 -24
-2 -43 21 -26 33 -29 44 -9 44 8 0 17 -11 20 -24z m-2230 -25 c14 -16 15 -23
6 -41 -14 -27 -27 -17 -36 28 -7 36 4 41 30 13z m2046 -11 c0 -11 -2 -20 -5
-20 -2 0 -9 9 -15 20 -9 16 -8 20 5 20 8 0 15 -9 15 -20z m1490 -2 c0 -18 -2
-20 -9 -8 -6 8 -7 18 -5 22 9 14 14 9 14 -14z m1139 -2 c24 -13 40 -25 35 -28
-11 -7 -94 31 -94 43 0 13 10 11 59 -15z m-1916 -6 c3 -11 1 -20 -4 -20 -5 0
-9 9 -9 20 0 11 2 20 4 20 2 0 6 -9 9 -20z m1822 10 c-8 -13 -87 -51 -93 -45
-6 6 -7 5 38 33 37 23 66 29 55 12z m165 -40 c0 -5 9 -10 20 -10 25 0 70 -21
70 -32 0 -10 -22 -5 -77 18 -31 13 -45 34 -23 34 6 0 10 -4 10 -10z m-3270
-57 c0 -2 -4 -2 -9 1 -5 4 -11 1 -13 -5 -2 -7 -4 5 -5 25 l-1 38 14 -27 c8
-15 14 -29 14 -32z m1377 35 c-3 -8 -6 -5 -6 6 -1 11 2 17 5 13 3 -3 4 -12 1
-19z m-2385 -15 c-2 -16 -24 -50 -48 -78 l-44 -50 17 50 c14 37 59 97 79 105
0 0 -1 -12 -4 -27z m1175 5 c-3 -8 -6 -5 -6 6 -1 11 2 17 5 13 3 -3 4 -12 1
-19z m2828 12 c-9 -14 -65 -42 -65 -33 0 5 -5 1 -10 -7 -6 -10 -10 -11 -10 -3
0 7 17 21 38 32 42 23 56 26 47 11z m192 4 c-3 -3 -12 -4 -19 -1 -8 3 -5 6 6
6 11 1 17 -2 13 -5z m-3547 -28 c0 -13 3 -32 6 -41 6 -14 3 -14 -20 -4 -15 7
-24 17 -21 23 3 6 8 19 11 29 9 25 24 21 24 -7z m502 12 c-14 -14 -42 -20 -42
-8 0 5 10 11 23 13 12 2 24 5 27 6 2 0 -1 -4 -8 -11z m2568 3 c0 -5 -7 -11
-15 -15 -15 -5 -20 5 -8 17 9 10 23 9 23 -2z m190 -1 c8 -1 -7 -12 -34 -26
-38 -18 -52 -21 -58 -12 -13 21 -9 28 12 28 11 0 20 5 20 11 0 7 9 9 23 5 12
-3 29 -6 37 -6z m-4642 -35 c-3 -14 1 -30 8 -36 19 -16 18 -29 -3 -29 -9 0
-13 -3 -10 -7 7 -7 -11 -33 -23 -33 -17 0 -71 63 -66 77 5 11 10 12 19 5 9 -8
18 -3 32 19 25 36 49 39 43 4z m392 0 c13 -14 30 -25 37 -25 7 0 18 -11 23
-25 9 -25 37 -33 56 -16 5 4 24 13 43 19 30 11 32 10 25 -6 -4 -9 -8 -34 -7
-54 1 -31 -3 -38 -26 -46 -27 -10 -58 1 -74 26 -4 6 -17 12 -28 12 -23 0 -61
18 -71 34 -4 6 -8 22 -8 36 0 14 -7 36 -16 48 -14 20 -14 22 4 22 10 0 29 -11
42 -25z m4585 15 c-16 -7 -12 -9 20 -10 49 -2 117 -25 95 -33 -8 -3 -94 -8
-190 -11 -99 -3 -164 -1 -150 4 14 4 21 9 15 9 -5 1 8 12 30 25 33 20 54 24
120 24 53 1 73 -2 60 -8z m230 -31 c23 -9 26 -13 12 -16 -19 -5 -107 25 -107
37 0 16 13 17 38 5 15 -8 41 -19 57 -26z m-2695 15 c0 -8 -4 -12 -10 -9 -5 3
-10 10 -10 16 0 5 5 9 10 9 6 0 10 -7 10 -16z m580 -4 c6 -11 7 -20 2 -20 -6
0 -12 9 -15 20 -3 11 -3 20 -1 20 2 0 8 -9 14 -20z m-1334 -19 c0 -11 -5 -17
-13 -14 -17 6 -17 20 0 26 6 3 12 6 12 6 1 1 1 -7 1 -18z m1459 -1 c4 -6 -5
-10 -19 -10 -14 0 -26 5 -26 10 0 6 9 10 19 10 11 0 23 -4 26 -10z m-1545 -26
c0 -8 4 -14 10 -14 9 0 8 -65 -2 -75 -3 -3 -11 2 -19 12 -12 15 -12 16 4 10 9
-3 17 -2 17 3 0 6 -9 10 -20 10 -23 0 -24 4 -9 31 8 15 7 24 -2 35 -10 12 -9
13 5 8 9 -3 16 -12 16 -20z m1060 16 c0 -5 -7 -7 -15 -4 -8 4 -15 8 -15 10 0
2 7 4 15 4 8 0 15 -4 15 -10z m-480 -21 c0 -4 -4 -11 -10 -14 -5 -3 -10 0 -10
7 0 10 -3 9 -10 -2 -9 -15 -23 -8 -26 13 -1 9 8 12 27 9 16 -2 29 -8 29 -13z
m1970 16 c0 -2 -13 -11 -30 -20 -16 -9 -30 -11 -30 -6 0 7 22 19 58 30 1 1 2
-1 2 -4z m-1570 -17 c0 -10 3 -9 9 1 7 11 10 9 16 -8 3 -12 11 -18 17 -15 7 4
8 2 4 -5 -4 -6 -12 -9 -17 -6 -5 4 -9 -1 -9 -9 0 -10 -6 -13 -15 -10 -8 4 -15
14 -15 23 0 12 -2 13 -9 3 -6 -10 -12 -7 -25 12 -16 26 -16 26 14 26 17 0 30
-5 30 -12z m1635 2 c8 -13 -5 -13 -25 0 -13 8 -13 10 2 10 9 0 20 -4 23 -10z
m165 -5 c0 -9 8 -19 18 -22 9 -4 20 -11 24 -17 9 -13 2 -311 -8 -350 -5 -21
-12 -26 -39 -26 -31 0 -32 1 -39 53 -8 67 -8 166 0 205 5 24 12 32 33 34 45 5
33 38 -27 74 l-53 31 38 16 c48 20 53 20 53 2z m-1680 -5 c0 -5 -4 -10 -10
-10 -5 0 -10 5 -10 10 0 6 5 10 10 10 6 0 10 -4 10 -10z m300 -5 c9 5 11 4 6
-3 -7 -12 23 -46 60 -69 17 -11 15 -12 -13 -9 -18 2 -44 11 -58 20 -25 16 -36
34 -12 20 6 -4 5 1 -4 12 -9 10 -14 25 -11 33 3 10 6 11 12 1 4 -7 13 -9 20
-5z m2101 -7 c-6 -18 -18 -24 -52 -29 -41 -5 -42 -5 -14 -11 17 -3 -39 -6
-122 -7 -96 0 -153 3 -153 9 0 6 -19 10 -43 10 -31 0 -45 5 -54 20 -12 19 -9
19 90 23 56 1 159 4 229 5 l127 2 -8 -22z m-584 -8 c30 0 33 -3 33 -30 0 -16
5 -30 10 -30 6 0 10 -52 10 -135 0 -83 -4 -135 -10 -135 -5 0 -10 -16 -10 -35
0 -19 -4 -35 -10 -35 -5 0 -10 5 -10 11 0 7 -15 10 -39 7 l-38 -3 3 160 c2 88
4 180 4 205 0 34 3 41 12 32 7 -7 27 -12 45 -12z m-3479 -7 c12 -10 39 -31 62
-47 37 -28 39 -31 23 -48 -23 -25 -34 -23 -76 16 -27 25 -37 42 -37 65 0 36 0
36 28 14z m3012 3 c0 -2 -7 -6 -15 -10 -8 -3 -15 -1 -15 4 0 6 7 10 15 10 8 0
15 -2 15 -4z m613 -20 c18 -8 41 -17 52 -19 11 -3 -14 -5 -56 -6 -53 -1 -80 3
-88 12 -6 8 -8 17 -4 20 11 12 64 8 96 -7z m-3478 -12 c17 -13 18 -16 5 -24
-10 -6 -16 -5 -19 3 -2 7 -8 18 -14 25 -13 17 4 15 28 -4z m2805 11 c0 -7 -61
-37 -66 -32 -3 2 10 12 28 20 37 19 38 19 38 12z m193 -15 c-5 -18 -13 -20
-77 -18 -66 1 -68 2 -26 8 25 4 39 8 32 8 -30 4 2 22 38 22 33 0 37 -3 33 -20z
m65 1 c10 -6 8 -10 -10 -14 -34 -10 -38 -9 -32 8 7 17 22 19 42 6z m-1098 -11
c0 -5 -2 -10 -4 -10 -3 0 -8 5 -11 10 -3 6 -1 10 4 10 6 0 11 -4 11 -10z
m1205 0 c3 -6 -1 -7 -9 -4 -18 7 -21 14 -7 14 6 0 13 -4 16 -10z m-2686 -21
c-14 -8 -29 -3 -29 11 0 4 9 6 21 3 15 -4 17 -8 8 -14z m1288 -11 c-3 -7 -5
-2 -5 12 0 14 2 19 5 13 2 -7 2 -19 0 -25z m1088 -8 c-4 -6 16 -10 52 -9 44 1
52 3 33 9 -39 13 108 12 153 -1 32 -8 36 -13 26 -25 -13 -16 -64 -20 -54 -4 4
6 -8 10 -30 10 -23 0 -34 -4 -30 -11 10 -15 -137 -10 -191 7 -23 7 -45 10 -48
7 -3 -4 -6 -1 -6 5 0 14 18 20 63 21 23 1 36 -3 32 -9z m1043 -7 c-2 -10 -13
-19 -26 -21 -12 -2 -20 -8 -17 -13 4 -5 -18 -9 -49 -9 -53 0 -56 1 -56 24 0
26 12 30 113 34 32 2 38 -1 35 -15z m-356 -18 c5 -25 5 -25 -71 -24 -64 0 -72
2 -51 11 25 11 25 11 3 15 -49 9 -20 23 46 23 65 0 69 -1 73 -25z m-3406 6
c23 19 17 -42 -7 -71 -17 -21 -19 -22 -10 -3 7 14 8 24 1 28 -5 3 -10 18 -9
33 0 15 3 21 6 14 4 -10 8 -10 19 -1z m1219 -1 c3 -5 1 -10 -4 -10 -6 0 -11 5
-11 10 0 6 2 10 4 10 3 0 8 -4 11 -10z m121 -2 c9 -10 -15 -48 -31 -48 -21 0
-28 19 -13 37 9 12 9 15 1 9 -7 -4 -13 -3 -13 3 0 10 45 9 56 -1z m2244 2 c0
-6 -33 -10 -80 -10 -47 0 -80 4 -80 10 0 6 33 10 80 10 47 0 80 -4 80 -10z
m-2320 -4 c0 -3 -4 -8 -10 -11 -5 -3 -10 -1 -10 4 0 6 5 11 10 11 6 0 10 -2
10 -4z m1325 -6 c4 -6 -5 -10 -20 -10 -15 0 -24 4 -20 10 3 6 12 10 20 10 8 0
17 -4 20 -10z m-123 -35 c15 -19 8 -24 -19 -14 -29 11 -45 28 -37 41 5 8 44
-10 56 -27z m-2502 0 c0 -7 -7 -15 -15 -19 -15 -5 -22 24 -9 37 9 9 24 -2 24
-18z m-867 1 c4 -10 1 -13 -9 -9 -15 6 -19 23 -5 23 5 0 11 -7 14 -14z m3637
-21 c0 -16 -44 -20 -87 -9 -37 10 -15 24 38 24 37 0 49 -4 49 -15z m226 0 c-8
-8 -28 -15 -44 -15 -19 0 -29 5 -29 15 0 11 12 15 44 15 40 0 43 -2 29 -15z
m807 9 c13 -13 -7 -34 -33 -34 -38 0 -50 -20 -13 -21 23 0 25 -1 8 -7 -30 -11
-212 -2 -194 9 9 6 -3 9 -39 9 -33 0 -51 -4 -47 -10 4 -6 -28 -10 -89 -10
l-96 0 0 35 0 35 248 0 c137 0 251 -3 255 -6z m-1228 -22 c-3 -3 -11 0 -18 7
-9 10 -8 11 6 5 10 -3 15 -9 12 -12z m-2301 -51 c-3 -3 -15 6 -27 18 l-22 24
27 -19 c14 -10 24 -21 22 -23z m2339 22 c-7 -2 -21 -2 -30 0 -10 3 -4 5 12 5
17 0 24 -2 18 -5z m407 -2 c0 -16 -25 -28 -72 -35 -32 -5 -48 -4 -48 3 0 6 21
12 48 12 42 1 44 2 17 9 -46 12 -103 12 -85 0 11 -7 5 -10 -22 -10 -21 0 -38
-4 -38 -10 0 -6 -32 -10 -77 -9 -51 0 -71 3 -58 9 18 7 19 8 3 15 -46 18 -4
25 157 25 96 0 175 -4 175 -9z m-756 -26 c-4 -8 -11 -15 -16 -15 -6 0 -5 6 2
15 7 8 14 15 16 15 2 0 1 -7 -2 -15z m-1894 -21 c0 -2 -9 -4 -21 -4 -11 0 -18
4 -14 10 5 8 35 3 35 -6z m3298 6 c117 0 132 -2 132 -17 0 -9 -7 -25 -17 -35
-20 -23 -118 -25 -142 -4 -15 13 -110 22 -191 17 -29 -2 -32 -4 -15 -11 13 -6
-5 -8 -55 -7 -73 2 -75 3 -78 29 -4 34 13 38 138 32 52 -2 155 -4 228 -4z
m-1028 -46 c0 -18 -3 -18 -48 3 l-37 16 30 7 c32 7 55 -4 55 -26z m363 22 c11
-27 -63 -51 -78 -26 -3 6 -28 10 -56 10 -60 0 -66 18 -6 22 128 9 134 9 140
-6z m-258 -6 c-4 -6 5 -10 21 -10 22 0 25 -2 14 -15 -13 -15 -65 -20 -94 -9
-9 3 -16 15 -16 25 0 16 7 19 41 19 24 0 38 -4 34 -10z m295 -47 c-1 -26 -67
-60 -84 -43 -7 7 -6 10 5 11 7 0 4 4 -8 9 -40 16 -25 30 32 30 30 0 55 -3 55
-7z m-260 -18 c0 -8 -6 -15 -12 -16 -7 0 -4 -4 7 -9 24 -10 10 -13 -50 -10
-44 2 -87 19 -49 20 11 0 24 4 30 9 9 9 36 17 62 20 6 0 12 -6 12 -14z m654 0
c-4 -9 -19 -15 -35 -15 -17 0 -29 -5 -29 -12 0 -9 -16 -13 -48 -13 -41 0 -47
3 -50 22 -3 21 1 22 70 26 40 1 78 4 85 5 7 1 10 -4 7 -13z m436 11 c0 -2 -7
-7 -16 -10 -8 -3 -12 -2 -9 4 6 10 25 14 25 6z m-1016 -22 c21 -21 20 -34 -2
-34 -24 0 -42 19 -35 36 7 18 18 18 37 -2z m74 -9 c9 -19 9 -25 -1 -25 -20 0
-34 14 -34 33 0 25 22 21 35 -8z m867 15 c17 -7 16 -9 -10 -10 l-30 -2 29 -12
29 -13 -33 -17 c-43 -21 -140 -22 -140 -1 0 8 8 16 18 16 16 1 16 2 0 6 -10 2
-18 13 -18 24 0 17 7 19 68 18 37 0 76 -4 87 -9z m-315 -16 c0 -9 5 -12 11 -8
7 4 10 1 7 -7 -5 -17 -38 -23 -56 -11 -7 5 -10 16 -6 25 8 21 44 22 44 1z
m112 -1 c8 -31 -3 -43 -38 -43 -21 0 -34 5 -34 13 1 38 63 64 72 30z m403 -43
c3 -5 1 -10 -4 -10 -6 0 -11 5 -11 10 0 6 2 10 4 10 3 0 8 -4 11 -10z m-460
-69 c7 -12 -15 -62 -25 -56 -4 3 -13 -2 -20 -10 -11 -13 -50 -22 -50 -11 0 16
14 36 26 36 7 0 21 11 31 25 19 26 29 30 38 16z m133 2 c-10 -2 -26 -2 -35 0
-10 3 -2 5 17 5 19 0 27 -2 18 -5z m142 -13 c0 -11 -4 -20 -10 -20 -5 0 -10 9
-10 20 0 11 5 20 10 20 6 0 10 -9 10 -20z m-545 -24 c11 -11 1 -14 -68 -20
-119 -9 -155 -8 -137 4 14 9 6 15 -15 10 -38 -8 -45 -8 -45 0 0 21 244 27 265
6z m134 -14 c-28 -22 -65 -26 -48 -6 9 11 25 17 63 23 5 0 -2 -7 -15 -17z"/>
<path d="M7690 3230 c-19 -12 37 -13 95 -1 39 8 38 9 -20 10 -33 0 -67 -4 -75
-9z"/>
<path d="M7530 3040 c-42 -7 -40 -7 25 -8 39 -1 77 3 85 8 18 11 -37 11 -110
0z"/>
<path d="M7730 2950 c0 -5 25 -10 55 -10 30 0 55 5 55 10 0 6 -25 10 -55 10
-30 0 -55 -4 -55 -10z"/>
<path d="M7245 2700 c3 -5 11 -10 16 -10 6 0 7 5 4 10 -3 6 -11 10 -16 10 -6
0 -7 -4 -4 -10z"/>
<path d="M4090 5525 c0 -8 4 -15 10 -15 5 0 7 7 4 15 -4 8 -8 15 -10 15 -2 0
-4 -7 -4 -15z"/>
<path d="M4200 5050 c0 -7 24 -20 36 -20 13 0 1 19 -16 23 -11 3 -20 2 -20 -3z"/>
<path d="M4170 4944 c0 -3 5 -15 12 -27 11 -21 11 -21 18 -2 4 11 6 23 3 28
-5 8 -33 10 -33 1z"/>
<path d="M4136 4931 c-4 -7 -5 -15 -2 -18 9 -9 19 4 14 18 -4 11 -6 11 -12 0z"/>
<path d="M4225 4900 c10 -11 20 -18 23 -15 7 6 -18 35 -31 35 -5 0 -2 -9 8
-20z"/>
<path d="M4060 4890 c0 -5 6 -10 13 -10 8 0 7 -4 -3 -10 -13 -8 -12 -10 3 -10
19 0 20 1 11 24 -7 18 -24 22 -24 6z"/>
<path d="M5005 4880 c-3 -5 -1 -10 4 -10 6 0 11 5 11 10 0 6 -2 10 -4 10 -3 0
-8 -4 -11 -10z"/>
<path d="M5043 4868 c1 -15 6 -23 11 -18 4 4 4 16 -2 26 -9 16 -10 14 -9 -8z"/>
<path d="M4966 4855 c8 -35 10 -39 17 -28 3 5 -1 19 -9 33 l-14 25 6 -30z"/>
<path d="M4166 4862 c-3 -5 1 -9 9 -9 8 0 15 4 15 9 0 4 -4 8 -9 8 -6 0 -12
-4 -15 -8z"/>
<path d="M4932 4838 c2 -18 8 -31 13 -28 6 3 9 12 7 20 -2 8 -4 21 -4 28 -1 6
-5 12 -10 12 -5 0 -8 -15 -6 -32z"/>
<path d="M6870 4831 c0 -11 4 -22 9 -25 4 -3 6 6 3 19 -5 30 -12 33 -12 6z"/>
<path d="M4009 4803 c-8 -9 -9 -14 -2 -10 6 4 14 1 16 -5 3 -7 6 -3 6 10 1 26
-2 27 -20 5z"/>
<path d="M5066 4812 c-2 -4 -1 -14 5 -22 7 -12 9 -10 9 8 0 23 -5 28 -14 14z"/>
<path d="M3950 4799 c0 -3 9 -9 19 -12 13 -3 18 0 15 7 -5 13 -34 18 -34 5z"/>
<path d="M4180 4793 c0 -6 7 -19 15 -27 12 -12 14 -20 5 -36 -8 -16 -8 -20 3
-20 8 0 17 8 20 18 2 9 8 25 12 35 6 14 4 16 -11 10 -11 -4 -15 -3 -10 5 3 6
2 13 -4 17 -5 3 -10 0 -10 -7 0 -9 -3 -9 -10 2 -6 9 -10 10 -10 3z"/>
<path d="M4132 4773 c2 -10 11 -19 21 -21 16 -3 17 -1 7 17 -13 25 -33 28 -28
4z"/>
<path d="M5054 4752 c0 -10 6 -19 12 -19 14 0 12 29 -2 34 -5 2 -10 -5 -10
-15z"/>
<path d="M3905 4751 c-3 -5 -1 -12 5 -16 5 -3 10 1 10 9 0 18 -6 21 -15 7z"/>
<path d="M4083 4744 c-16 -16 -18 -68 -3 -59 6 4 10 12 9 18 -1 7 1 20 6 30
10 23 4 29 -12 11z"/>
<path d="M5060 4679 c0 -5 5 -7 10 -4 6 3 10 8 10 11 0 2 -4 4 -10 4 -5 0 -10
-5 -10 -11z"/>
<path d="M5213 4677 c4 -10 7 -23 7 -28 0 -5 5 -9 10 -9 16 0 12 26 -7 41 -15
12 -16 12 -10 -4z"/>
<path d="M4980 4666 c0 -9 5 -16 10 -16 6 0 10 4 10 9 0 6 -4 13 -10 16 -5 3
-10 -1 -10 -9z"/>
<path d="M5250 4660 c0 -5 5 -10 11 -10 5 0 7 5 4 10 -3 6 -8 10 -11 10 -2 0
-4 -4 -4 -10z"/>
<path d="M5103 4642 c4 -25 37 -75 44 -68 4 3 -1 14 -10 24 -10 10 -14 21 -11
25 4 3 -1 13 -10 22 -15 15 -16 15 -13 -3z"/>
<path d="M5036 4608 c3 -5 10 -6 15 -3 13 9 11 12 -6 12 -8 0 -12 -4 -9 -9z"/>
<path d="M6868 4613 c7 -3 16 -2 19 1 4 3 -2 6 -13 5 -11 0 -14 -3 -6 -6z"/>
<path d="M4980 4551 c0 -6 4 -13 10 -16 6 -3 7 1 4 9 -7 18 -14 21 -14 7z"/>
<path d="M5103 4545 c0 -8 4 -15 9 -15 4 0 8 4 8 9 0 6 -4 12 -8 15 -5 3 -9
-1 -9 -9z"/>
<path d="M4956 4515 c8 -34 12 -41 20 -33 3 4 -2 19 -10 35 l-16 28 6 -30z"/>
<path d="M4252 4518 c0 -7 -4 -24 -8 -38 -4 -14 -3 -21 1 -17 5 4 10 13 11 20
1 7 5 20 9 30 4 9 3 17 -2 17 -5 0 -10 -6 -11 -12z"/>
<path d="M5180 4524 c0 -17 26 -54 36 -50 7 3 15 0 18 -7 3 -7 4 -6 5 3 0 30
-16 53 -37 55 -12 1 -22 0 -22 -1z"/>
<path d="M6845 4520 c3 -5 8 -10 11 -10 2 0 4 5 4 10 0 6 -5 10 -11 10 -5 0
-7 -4 -4 -10z"/>
<path d="M6866 4501 c-3 -5 1 -11 9 -14 9 -4 12 -1 8 9 -6 16 -10 17 -17 5z"/>
<path d="M6926 4497 c3 -10 9 -15 12 -12 3 3 0 11 -7 18 -10 9 -11 8 -5 -6z"/>
<path d="M5047 4465 c3 -8 9 -12 14 -9 12 7 11 11 -5 17 -10 4 -13 1 -9 -8z"/>
<path d="M6845 4460 c3 -5 8 -10 11 -10 2 0 4 5 4 10 0 6 -5 10 -11 10 -5 0
-7 -4 -4 -10z"/>
<path d="M6837 4429 c4 -13 8 -18 11 -10 2 7 -1 18 -6 23 -8 8 -9 4 -5 -13z"/>
<path d="M4952 4407 c1 -20 5 -34 9 -31 9 5 6 51 -4 60 -4 4 -6 -9 -5 -29z"/>
<path d="M4056 4385 c5 -42 11 -55 24 -55 9 0 8 8 -6 45 -4 11 -8 23 -8 27 -1
3 -4 9 -8 13 -4 4 -5 -10 -2 -30z"/>
<path d="M5801 4404 c0 -11 3 -14 6 -6 3 7 2 16 -1 19 -3 4 -6 -2 -5 -13z"/>
<path d="M5131 4401 c-12 -8 -12 -14 -3 -33 8 -14 10 -15 7 -4 -3 10 0 25 6
32 13 16 10 17 -10 5z"/>
<path d="M4130 4374 c0 -3 7 -12 15 -20 16 -17 18 -14 9 10 -6 15 -24 23 -24
10z"/>
<path d="M5042 4360 c0 -14 2 -19 5 -12 2 6 2 18 0 25 -3 6 -5 1 -5 -13z"/>
<path d="M5200 4357 c0 -10 8 -17 18 -17 9 0 13 4 7 8 -5 4 -13 11 -17 16 -5
5 -8 2 -8 -7z"/>
<path d="M6946 4357 c3 -10 9 -15 12 -12 3 3 0 11 -7 18 -10 9 -11 8 -5 -6z"/>
<path d="M5257 4259 c4 -15 8 -17 19 -8 18 15 18 16 -5 22 -14 3 -17 0 -14
-14z"/>
<path d="M5020 4229 c0 -5 5 -7 10 -4 6 3 10 8 10 11 0 2 -4 4 -10 4 -5 0 -10
-5 -10 -11z"/>
<path d="M5780 4196 c0 -2 7 -7 16 -10 8 -3 12 -2 9 4 -6 10 -25 14 -25 6z"/>
<path d="M5819 4175 c-17 -29 -18 -63 -2 -69 21 -9 22 -7 14 39 -3 22 -9 36
-12 30z"/>
<path d="M5855 4080 c3 -5 12 -10 20 -10 8 0 17 -5 21 -12 4 -6 3 -8 -4 -4 -6
3 -13 2 -16 -3 -3 -5 1 -11 9 -15 23 -8 29 13 9 35 -17 19 -50 27 -39 9z"/>
<path d="M5654 4047 c-4 -10 -2 -23 3 -28 14 -14 24 13 13 32 -7 11 -10 10
-16 -4z"/>
<path d="M5715 4040 c3 -5 8 -10 11 -10 2 0 4 5 4 10 0 6 -5 10 -11 10 -5 0
-7 -4 -4 -10z"/>
<path d="M3995 4030 c3 -5 8 -10 11 -10 2 0 4 5 4 10 0 6 -5 10 -11 10 -5 0
-7 -4 -4 -10z"/>
<path d="M5817 4020 c3 -11 7 -20 9 -20 2 0 4 9 4 20 0 11 -4 20 -9 20 -5 0
-7 -9 -4 -20z"/>
<path d="M5870 4019 c0 -5 5 -7 10 -4 6 3 10 8 10 11 0 2 -4 4 -10 4 -5 0 -10
-5 -10 -11z"/>
<path d="M5769 4018 c-5 -26 -3 -35 12 -56 10 -13 15 -31 12 -40 -6 -14 -4
-15 9 -4 17 13 18 28 5 50 -5 6 -5 18 -1 25 4 6 4 9 -1 5 -4 -4 -14 0 -21 10
-7 9 -14 14 -15 10z"/>
<path d="M5900 4002 c0 -14 6 -22 16 -22 14 0 15 3 3 18 -7 9 -15 19 -16 21
-2 2 -3 -5 -3 -17z"/>
<path d="M4121 3934 c0 -11 3 -14 6 -6 3 7 2 16 -1 19 -3 4 -6 -2 -5 -13z"/>
<path d="M5756 3892 c-2 -4 -1 -14 5 -22 7 -12 9 -10 9 8 0 23 -5 28 -14 14z"/>
<path d="M5902 3859 c2 -6 8 -10 13 -10 5 0 11 4 13 10 2 6 -4 11 -13 11 -9 0
-15 -5 -13 -11z"/>
<path d="M5784 3848 c3 -15 26 -23 26 -8 0 6 -4 9 -9 6 -5 -4 -12 -1 -14 4 -3
6 -4 5 -3 -2z"/>
<path d="M5860 3845 c0 -9 9 -15 21 -15 18 0 19 2 5 15 -8 8 -17 15 -20 15 -3
0 -6 -7 -6 -15z"/>
<path d="M5772 3795 c2 -26 12 -32 23 -15 3 6 1 10 -5 10 -7 0 -10 7 -6 15 3
8 1 15 -4 15 -5 0 -9 -11 -8 -25z"/>
<path d="M5815 3777 c-4 -15 -5 -31 -1 -34 3 -4 6 2 7 13 1 14 3 13 8 -6 6
-21 13 -25 49 -26 33 -1 42 2 42 15 0 12 2 13 8 3 9 -13 72 -6 72 8 0 13 -27
30 -35 22 -5 -4 -5 -2 -1 5 3 6 2 14 -4 18 -13 8 -70 -35 -70 -54 0 -8 -3 -11
-7 -7 -8 8 -9 12 -12 44 -2 16 -2 16 -15 0 -12 -17 -14 -16 -23 5 -11 22 -11
22 -18 -6z"/>
<path d="M5880 3780 c0 -5 5 -10 10 -10 6 0 10 5 10 10 0 6 -4 10 -10 10 -5 0
-10 -4 -10 -10z"/>
<path d="M7061 3614 c0 -11 3 -14 6 -6 3 7 2 16 -1 19 -3 4 -6 -2 -5 -13z"/>
<path d="M5476 3585 c-14 -22 -16 -32 -7 -49 11 -20 11 -20 5 2 -4 16 0 28 11
36 10 7 16 19 13 26 -2 8 -10 3 -22 -15z"/>
<path d="M8000 2730 c0 -12 94 -12 130 0 17 6 2 8 -52 9 -46 1 -78 -3 -78 -9z"/>
<path d="M6935 2680 c-11 -4 -42 -8 -69 -8 -80 -2 -66 -12 17 -12 51 0 77 -4
80 -12 4 -8 6 -7 6 4 1 9 7 18 13 20 7 3 3 7 -8 10 -11 3 -29 2 -39 -2z"/>
<path d="M6670 2666 c0 -8 60 -12 72 -4 8 4 -4 8 -29 8 -24 0 -43 -2 -43 -4z"/>
<path d="M2027 2648 c-5 -15 10 -48 22 -48 4 0 7 10 5 23 -1 12 -3 25 -3 30
-2 12 -19 8 -24 -5z"/>
<path d="M6372 2627 c-9 -10 -4 -12 21 -11 47 3 51 3 45 9 -13 13 -56 14 -66
2z"/>
<path d="M5965 2610 c-3 -5 1 -13 10 -16 22 -9 29 1 11 15 -10 8 -16 9 -21 1z"/>
<path d="M6305 2610 c3 -5 12 -7 20 -3 21 7 19 13 -6 13 -11 0 -18 -4 -14 -10z"/>
<path d="M6128 2603 c7 -3 16 -2 19 1 4 3 -2 6 -13 5 -11 0 -14 -3 -6 -6z"/>
<path d="M5335 2329 c-4 -24 -20 -98 -35 -164 -15 -66 -31 -139 -35 -163 -7
-42 -6 -43 16 -40 25 3 29 13 64 173 l18 79 51 -129 c28 -72 55 -130 60 -130
4 0 31 58 59 129 57 142 52 142 81 1 9 -44 19 -90 22 -103 3 -17 10 -22 27
-20 27 4 27 13 -2 143 -13 55 -29 130 -36 167 -22 109 -28 111 -64 16 -38 -98
-54 -141 -72 -187 l-13 -34 -19 44 c-10 24 -35 87 -54 139 -45 122 -58 137
-68 79z"/>
<path d="M5961 2348 c-5 -13 -41 -101 -80 -197 -39 -96 -71 -178 -71 -183 0
-4 9 -8 21 -8 15 0 26 13 42 50 l22 50 83 0 c70 0 83 -3 88 -17 17 -55 35 -83
54 -83 28 0 25 19 -14 113 -96 227 -116 277 -116 286 0 20 -20 11 -29 -11z
m47 -166 l30 -72 -59 0 c-32 0 -59 2 -59 4 0 11 53 146 56 143 2 -1 16 -35 32
-75z"/>
<path d="M7510 2164 l0 -205 23 3 c21 3 22 7 25 132 l3 128 95 -136 c53 -75
100 -136 105 -136 5 0 9 86 9 200 l0 200 -25 0 -24 0 -3 -131 -3 -130 -98 140
c-54 78 -100 141 -103 141 -2 0 -4 -93 -4 -206z"/>
<path d="M2450 2344 c-161 -56 -188 -256 -48 -356 30 -21 46 -23 171 -26 133
-3 137 -3 137 17 0 17 -6 21 -37 21 -34 0 -35 1 -20 18 25 27 57 104 57 137 0
34 -32 110 -58 138 -46 51 -136 73 -202 51z m130 -59 c48 -25 71 -68 71 -130
0 -90 -56 -145 -146 -145 -135 0 -193 168 -90 259 30 26 44 31 86 31 27 0 63
-7 79 -15z"/>
<path d="M7074 2344 c-87 -32 -139 -111 -132 -204 7 -100 79 -171 179 -178
107 -8 198 66 215 173 6 45 -19 119 -54 158 -47 52 -142 75 -208 51z m143 -64
c43 -26 63 -68 63 -130 0 -45 -4 -55 -38 -92 -34 -36 -45 -42 -93 -45 -45 -4
-60 -1 -89 19 -50 33 -72 81 -67 142 4 43 10 55 45 88 37 34 47 38 94 38 35 0
64 -7 85 -20z"/>
<path d="M6300 2154 l0 -195 23 3 c20 3 22 9 25 76 4 97 21 97 96 -3 44 -58
62 -75 81 -75 14 0 25 4 25 9 0 5 -22 37 -50 72 -43 56 -48 65 -33 74 9 6 30
22 47 37 27 23 31 33 31 75 0 89 -48 123 -173 123 l-72 0 0 -196z m184 124
c22 -31 20 -68 -6 -95 -17 -18 -32 -23 -75 -23 l-53 0 0 70 0 70 59 0 c51 0
62 -3 75 -22z"/>
<path d="M6715 2338 c-3 -8 -4 -95 -3 -193 l3 -180 25 0 25 0 0 190 c0 190 0
190 -23 193 -12 2 -24 -3 -27 -10z"/>
<path d="M4120 2265 c0 -43 -1 -45 -30 -45 -25 0 -30 -4 -30 -25 0 -21 5 -25
30 -25 l30 0 0 -105 0 -105 25 0 25 0 0 105 0 105 30 0 c25 0 30 4 30 25 0 21
-5 25 -30 25 -29 0 -30 2 -30 45 0 41 -2 45 -25 45 -23 0 -25 -4 -25 -45z"/>
<path d="M4397 2303 c-13 -12 -7 -44 8 -49 24 -10 47 14 34 37 -10 19 -30 25
-42 12z"/>
<path d="M3362 2219 c-85 -18 -128 -121 -82 -196 24 -40 67 -63 120 -63 32 0
48 7 78 34 30 29 35 37 24 48 -11 11 -20 9 -52 -10 -52 -30 -85 -28 -118 6
l-27 27 108 3 107 3 0 34 c0 26 -9 45 -32 70 -38 40 -78 55 -126 44z m82 -70
c14 -11 26 -25 26 -30 0 -5 -34 -9 -75 -9 -81 0 -97 13 -53 44 31 22 70 20
102 -5z"/>
<path d="M2880 2115 c0 -99 2 -107 25 -130 29 -29 88 -34 123 -9 20 14 22 14
22 0 0 -9 9 -16 20 -16 19 0 20 7 20 130 0 123 -1 130 -20 130 -18 0 -20 -7
-20 -57 0 -112 -27 -158 -88 -151 -27 3 -27 4 -30 83 -3 106 -8 125 -32 125
-19 0 -20 -7 -20 -105z"/>
<path d="M3694 2207 c-2 -7 -3 -65 -2 -128 3 -108 4 -114 24 -117 20 -3 22 2
26 84 4 76 8 89 27 106 30 24 68 23 81 -1 5 -11 10 -59 10 -106 0 -84 1 -86
23 -83 21 3 22 7 22 106 0 101 -1 104 -28 128 -33 28 -82 32 -115 8 -20 -14
-22 -14 -22 0 0 19 -39 21 -46 3z"/>
<path d="M4390 2089 c0 -130 0 -130 23 -127 21 3 22 7 25 131 l3 127 -26 0
-25 0 0 -131z"/>
<path d="M4637 2213 c-4 -3 -7 -62 -7 -130 l0 -123 24 0 c23 0 24 3 27 86 4
76 7 88 28 105 30 24 67 24 81 0 5 -11 10 -59 10 -106 0 -84 1 -86 23 -83 21
3 22 7 22 106 0 101 -1 104 -28 128 -33 28 -82 32 -115 8 -20 -14 -22 -14 -22
0 0 16 -31 22 -43 9z"/>
<path d="M6543 1553 c-29 -14 -53 -29 -53 -35 0 -5 29 -70 65 -144 51 -106 69
-135 81 -130 9 3 17 6 19 6 2 0 -7 25 -21 55 -13 31 -24 58 -24 60 0 13 36 2
92 -26 40 -20 68 -29 84 -25 37 10 29 21 -40 52 l-63 30 18 23 c30 37 25 96
-10 132 -37 37 -77 37 -148 2z m123 -38 c24 -37 11 -71 -36 -95 l-40 -20 -25
51 c-15 28 -25 52 -23 54 2 1 17 10 33 18 44 23 72 21 91 -8z"/>
<path d="M3678 1458 c-67 -62 -124 -117 -126 -124 -6 -25 27 -21 61 7 l36 29
55 -25 56 -26 0 -49 c0 -28 2 -50 4 -50 2 0 11 -3 19 -6 12 -4 16 13 21 93 4
54 9 135 12 181 4 53 3 82 -4 82 -5 0 -66 -50 -134 -112z m92 -28 c0 -33 -4
-60 -9 -60 -5 0 -26 7 -47 16 l-38 16 45 43 c24 24 45 44 47 45 1 0 2 -27 2
-60z"/>
<path d="M6335 1460 c-4 -6 10 -56 29 -111 45 -126 45 -144 4 -169 -41 -25
-80 -26 -101 -2 -16 18 -46 94 -69 175 -11 40 -32 57 -49 40 -15 -15 59 -214
92 -245 33 -32 79 -37 133 -14 76 32 83 85 29 234 -34 94 -52 118 -68 92z"/>
<path d="M3996 1358 c-21 -57 -44 -121 -52 -143 -19 -53 -18 -65 5 -65 19 0
34 27 47 83 4 17 11 26 19 23 64 -24 95 -28 125 -16 59 24 78 122 32 162 -13
12 -122 58 -136 58 -2 0 -20 -46 -40 -102z m147 10 c22 -26 22 -52 0 -73 -13
-13 -27 -16 -62 -11 -25 3 -49 10 -53 14 -4 4 0 29 10 55 17 47 18 48 52 42
19 -3 43 -15 53 -27z"/>
<path d="M4335 1348 c-2 -7 -21 -76 -40 -152 -29 -111 -34 -141 -23 -147 22
-14 27 -10 37 29 5 20 23 89 40 152 23 86 27 116 18 122 -17 11 -27 10 -32 -4z"/>
<path d="M5893 1332 c-74 -18 -72 -13 -42 -145 34 -149 45 -182 60 -181 37 4
164 35 170 41 5 5 4 15 -1 22 -7 13 -18 12 -76 -2 -38 -9 -69 -15 -71 -13 -2
1 -9 23 -17 48 l-14 46 37 7 c62 11 111 25 111 33 0 4 -4 13 -9 21 -7 11 -18
10 -66 -4 -68 -19 -80 -16 -88 22 -3 15 -9 36 -12 46 -6 13 -2 17 15 17 42 0
130 31 130 46 0 18 -45 17 -127 -4z"/>
<path d="M4585 1290 c-63 -19 -115 -93 -115 -162 0 -40 35 -104 71 -130 29
-22 95 -34 133 -24 31 8 86 53 86 72 0 21 -31 17 -57 -8 -18 -17 -36 -22 -75
-22 -44 0 -54 4 -79 32 -24 27 -29 41 -29 86 0 49 3 57 35 85 27 24 45 31 76
31 45 0 94 -28 104 -59 6 -21 42 -34 51 -19 8 12 -40 84 -68 102 -31 19 -96
27 -133 16z"/>
<path d="M5590 1279 c-64 -13 -70 -16 -63 -35 4 -11 15 -15 39 -12 l33 4 11
-66 c6 -36 14 -87 16 -115 8 -83 13 -95 34 -95 24 0 24 -4 5 135 -21 156 -21
153 18 157 20 2 32 8 32 18 0 18 -58 23 -125 9z"/>
<path d="M4906 1199 c-3 -34 -6 -93 -6 -131 0 -66 2 -72 34 -104 30 -30 40
-34 88 -34 100 0 128 52 128 243 0 68 -2 77 -19 77 -15 0 -19 -10 -25 -52 -3
-29 -6 -83 -6 -119 0 -78 -12 -99 -66 -106 -30 -4 -45 0 -64 15 -24 20 -25 24
-25 143 0 105 -2 124 -16 127 -13 2 -17 -10 -23 -59z"/>
<path d="M5285 1143 c3 -59 8 -132 11 -160 l5 -53 52 0 c71 0 97 9 97 31 0 16
-8 19 -55 19 -66 0 -64 -4 -68 155 -2 106 -3 110 -24 113 -23 3 -23 3 -18
-105z"/>
</g>
</svg>
