<?xml version="1.0" standalone="no"?>
<!DOCTYPE svg PUBLIC "-//W3C//DTD SVG 20010904//EN"
 "http://www.w3.org/TR/2001/REC-SVG-20010904/DTD/svg10.dtd">
<svg version="1.0" xmlns="http://www.w3.org/2000/svg"
 width="80.000000pt" height="80.000000pt" viewBox="0 0 80.000000 80.000000"
 preserveAspectRatio="xMidYMid meet">
<metadata>
Created by potrace 1.14, written by Peter Selinger 2001-2017
</metadata>
<g transform="translate(0.000000,80.000000) scale(0.100000,-0.100000)"
fill="#000000" stroke="none">
<path d="M104 781 c-49 -22 -80 -60 -94 -113 -7 -23 -10 -140 -9 -286 1 -216
3 -251 19 -282 46 -91 75 -98 368 -100 315 -1 349 8 394 107 17 38 18 65 16
311 l-3 269 -28 36 c-53 70 -61 72 -357 75 -242 2 -269 1 -306 -17z"/>
</g>
</svg>
